<?xml version="1.0" encoding="UTF-8" standalone="no"?>
<svg
   xmlns:dc="http://purl.org/dc/elements/1.1/"
   xmlns:cc="http://creativecommons.org/ns#"
   xmlns:rdf="http://www.w3.org/1999/02/22-rdf-syntax-ns#"
   xmlns:svg="http://www.w3.org/2000/svg"
   xmlns="http://www.w3.org/2000/svg"
   id="MSR-1"
   viewBox="0 0 250 250"
   version="1.1">
  <metadata
     id="metadata135">
    <rdf:RDF>
      <cc:Work
         rdf:about="">
        <dc:format>image/svg+xml</dc:format>
        <dc:type
           rdf:resource="http://purl.org/dc/dcmitype/StillImage" />
      </cc:Work>
    </rdf:RDF>
  </metadata>
  <defs
     id="defs133" />
  <circle
     class="Rang"
     layer="0"
     id="Rang0"
     cx="125"
     cy="125"
     r="123"
     fill="none"
     stroke="currentColor"
     stroke-width="2" />
  <g
     id="RangText1"
     layer="1"
     font-size="18px"
     font-style="normal"
     font-family="Arial"
     fill="currentColor"
     stroke="none"
     font-weight="normal"
     in="0"
     rad="106"
     cut="-173"
     len="338">
    <g
       aria-label="C"
       transform="rotate(-168.76,67.587477,100.54724)"
       id="text5">
      <path
         d="M 10.582031,-4.5175781 12.287109,-4.0869141 Q 11.750977,-1.9863281 10.353516,-0.87890625 8.9648438,0.21972656 6.9521484,0.21972656 4.8691406,0.21972656 3.5595703,-0.62402344 2.2587891,-1.4765625 1.5732422,-3.0849609 0.89648438,-4.6933594 0.89648438,-6.5390625 0.89648438,-8.5517578 1.6611328,-10.045898 2.4345703,-11.548828 3.8496094,-12.322266 5.2734375,-13.104492 6.9785156,-13.104492 8.9121094,-13.104492 10.230469,-12.120117 11.548828,-11.135742 12.067383,-9.3515625 L 10.388672,-8.9560547 Q 9.9404297,-10.362305 9.0878906,-11.003906 8.2353516,-11.645508 6.9433594,-11.645508 5.4580078,-11.645508 4.4560547,-10.933594 3.4628906,-10.22168 3.0585938,-9.0175781 2.6542969,-7.8222656 2.6542969,-6.5478516 2.6542969,-4.9042969 3.1289063,-3.6738281 3.6123047,-2.4521484 4.6230469,-1.8457031 5.6337891,-1.2392578 6.8115234,-1.2392578 8.2441406,-1.2392578 9.2373047,-2.0654297 10.230469,-2.8916016 10.582031,-4.5175781 Z"
         id="path137" />
    </g>
    <g
       aria-label="A"
       transform="rotate(-156.42,69.389222,93.979683)"
       id="text9">
      <path
         d="M -0.02636719,0 4.921875,-12.884766 H 6.7587891 L 12.032227,0 H 10.089844 L 8.5869141,-3.9023438 H 3.1992188 L 1.7841797,0 Z M 3.6914063,-5.2910156 H 8.0595703 L 6.7148437,-8.859375 Q 6.0996094,-10.485352 5.8007812,-11.53125 5.5546875,-10.291992 5.1064453,-9.0703125 Z"
         id="path140" />
    </g>
    <g
       aria-label="R"
       transform="rotate(-144.08,71.786975,87.176809)"
       id="text13">
      <path
         d="M 1.4150391,0 V -12.884766 H 7.1279297 Q 8.8505859,-12.884766 9.7470703,-12.533203 10.643555,-12.19043 11.179688,-11.311523 11.71582,-10.432617 11.71582,-9.3691406 11.71582,-7.9980469 10.828125,-7.0576172 9.9404297,-6.1171875 8.0859375,-5.8623047 8.7626953,-5.5371094 9.1142578,-5.2207031 9.8613281,-4.5351562 10.529297,-3.5068359 L 12.770508,0 H 10.625977 L 8.9208984,-2.6806641 Q 8.1738281,-3.8408203 7.6904297,-4.4560547 7.2070312,-5.0712891 6.8203125,-5.3173828 6.4423828,-5.5634766 6.046875,-5.6601562 5.7568359,-5.7216797 5.0976562,-5.7216797 H 3.1201172 V 0 Z M 3.1201172,-7.1982422 H 6.7851562 Q 7.9541016,-7.1982422 8.6132813,-7.4355469 9.2724609,-7.6816406 9.6152344,-8.2089844 9.9580078,-8.7451172 9.9580078,-9.3691406 9.9580078,-10.283203 9.2900391,-10.87207 8.6308594,-11.460938 7.1982422,-11.460938 H 3.1201172 Z"
         id="path143" />
    </g>
    <g
       transform="rotate(-133.7,71.921424,80.391855)"
       id="text17" />
    <g
       aria-label="S"
       transform="rotate(-123.64,75.472829,74.522697)"
       id="text21">
      <path
         d="M 0.80859375,-4.1396484 2.4169922,-4.2802734 Q 2.53125,-3.3134766 2.9443359,-2.6894531 3.3662109,-2.0742188 4.2451172,-1.6875 5.1240234,-1.3095703 6.2226562,-1.3095703 7.1982422,-1.3095703 7.9453125,-1.5996094 8.6923828,-1.8896484 9.0527344,-2.390625 9.421875,-2.9003906 9.421875,-3.4980469 9.421875,-4.1044922 9.0703125,-4.5527344 8.71875,-5.0097656 7.9101562,-5.3173828 7.3916016,-5.5195312 5.6162109,-5.9414062 3.8408203,-6.3720703 3.1289063,-6.75 2.2060547,-7.2333984 1.7490234,-7.9453125 1.3007812,-8.6660156 1.3007812,-9.5537109 1.3007812,-10.529297 1.8544922,-11.373047 2.4082031,-12.225586 3.4716797,-12.665039 4.5351562,-13.104492 5.8359375,-13.104492 7.2685547,-13.104492 8.3583984,-12.638672 9.4570313,-12.181641 10.045898,-11.285156 10.634766,-10.388672 10.678711,-9.2548828 L 9.0439453,-9.1318359 Q 8.9121094,-10.353516 8.1474609,-10.977539 7.3916016,-11.601563 5.90625,-11.601563 4.359375,-11.601563 3.6474609,-11.030273 2.9443359,-10.467773 2.9443359,-9.6679688 2.9443359,-8.9736328 3.4453125,-8.5253906 3.9375,-8.0771484 6.0117187,-7.6025391 8.0947266,-7.1367187 8.8681641,-6.7851562 9.9931641,-6.2666016 10.529297,-5.4667969 11.06543,-4.6757812 11.06543,-3.6386719 11.06543,-2.6103516 10.476563,-1.6962891 9.8876953,-0.79101562 8.7802734,-0.28125 7.6816406,0.21972656 6.3017578,0.21972656 4.5527344,0.21972656 3.3662109,-0.29003906 2.1884766,-0.79980469 1.5117187,-1.8193359 0.84375,-2.8476563 0.80859375,-4.1396484 Z"
         id="path147" />
    </g>
    <g
       aria-label="H"
       transform="rotate(-111.3,78.479307,65.887722)"
       id="text25">
      <path
         d="M 1.4414062,0 V -12.884766 H 3.1464844 V -7.59375 H 9.84375 V -12.884766 H 11.548828 V 0 H 9.84375 V -6.0732422 H 3.1464844 V 0 Z"
         id="path150" />
    </g>
    <g
       aria-label="O"
       transform="rotate(-98.31,82.116169,55.35553)"
       id="text29">
      <path
         d="M 0.87011719,-6.2753906 Q 0.87011719,-9.4833984 2.5927734,-11.293945 4.3154297,-13.113281 7.0400391,-13.113281 8.8242188,-13.113281 10.256836,-12.260742 11.689453,-11.408203 12.436523,-9.8789063 13.192383,-8.3583984 13.192383,-6.4248047 13.192383,-4.4648437 12.401367,-2.9179688 11.610352,-1.3710937 10.160156,-0.57128906 8.7099609,0.21972656 7.03125,0.21972656 5.2119141,0.21972656 3.7792969,-0.65917969 2.3466797,-1.5380859 1.6083984,-3.0585938 0.87011719,-4.5791016 0.87011719,-6.2753906 Z M 2.6279297,-6.2490234 Q 2.6279297,-3.9199219 3.8759766,-2.5751953 5.1328125,-1.2392578 7.0224609,-1.2392578 8.9472656,-1.2392578 10.186523,-2.5927734 11.43457,-3.9462891 11.43457,-6.4335937 11.43457,-8.0068359 10.898438,-9.1757813 10.371094,-10.353516 9.3427734,-10.995117 8.3232422,-11.645508 7.0488281,-11.645508 5.2382812,-11.645508 3.9287109,-10.397461 2.6279297,-9.1582031 2.6279297,-6.2490234 Z"
         id="path153" />
    </g>
    <g
       aria-label="W"
       transform="rotate(-84.01,87.518008,41.612274)"
       id="text33">
      <path
         d="M 3.6386719,0 0.21972656,-12.884766 H 1.96875 L 3.9287109,-4.4384766 Q 4.2451172,-3.1113281 4.4736328,-1.8017578 4.9658203,-3.8671875 5.0537109,-4.1835937 L 7.5058594,-12.884766 H 9.5625 L 11.408203,-6.3632812 Q 12.102539,-3.9375 12.410156,-1.8017578 12.65625,-3.0234375 13.051758,-4.6054687 L 15.073242,-12.884766 H 16.787109 L 13.253906,0 H 11.610352 L 8.8945313,-9.8173828 Q 8.5517578,-11.047852 8.4902344,-11.329102 8.2880859,-10.441406 8.1123047,-9.8173828 L 5.3789062,0 Z"
         id="path156" />
    </g>
    <g
       transform="rotate(-72.33,89.342459,23.020039)"
       id="text37" />
    <g
       aria-label="P"
       transform="rotate(-62.27,96.297461,7.8966443)"
       id="text41">
      <path
         d="M 1.3886719,0 V -12.884766 H 6.2490234 Q 7.5322266,-12.884766 8.2089844,-12.761719 9.1582031,-12.603516 9.7998047,-12.155273 10.441406,-11.71582 10.828125,-10.916016 11.223633,-10.116211 11.223633,-9.1582031 11.223633,-7.5146484 10.177734,-6.3720703 9.1318359,-5.2382812 6.3984375,-5.2382812 H 3.09375 V 0 Z M 3.09375,-6.7587891 H 6.4248047 Q 8.0771484,-6.7587891 8.7714844,-7.3740234 9.4658203,-7.9892578 9.4658203,-9.1054688 9.4658203,-9.9140625 9.0527344,-10.485352 8.6484375,-11.06543 7.9804687,-11.25 7.5498047,-11.364258 6.3896484,-11.364258 H 3.09375 Z"
         id="path160" />
    </g>
    <g
       aria-label="R"
       transform="rotate(-49.93,105.74501,-20.889004)"
       id="text45">
      <path
         d="M 1.4150391,0 V -12.884766 H 7.1279297 Q 8.8505859,-12.884766 9.7470703,-12.533203 10.643555,-12.19043 11.179688,-11.311523 11.71582,-10.432617 11.71582,-9.3691406 11.71582,-7.9980469 10.828125,-7.0576172 9.9404297,-6.1171875 8.0859375,-5.8623047 8.7626953,-5.5371094 9.1142578,-5.2207031 9.8613281,-4.5351562 10.529297,-3.5068359 L 12.770508,0 H 10.625977 L 8.9208984,-2.6806641 Q 8.1738281,-3.8408203 7.6904297,-4.4560547 7.2070312,-5.0712891 6.8203125,-5.3173828 6.4423828,-5.5634766 6.046875,-5.6601562 5.7568359,-5.7216797 5.0976562,-5.7216797 H 3.1201172 V 0 Z M 3.1201172,-7.1982422 H 6.7851562 Q 7.9541016,-7.1982422 8.6132813,-7.4355469 9.2724609,-7.6816406 9.6152344,-8.2089844 9.9580078,-8.7451172 9.9580078,-9.3691406 9.9580078,-10.283203 9.2900391,-10.87207 8.6308594,-11.460938 7.1982422,-11.460938 H 3.1201172 Z"
         id="path163" />
    </g>
    <g
       aria-label="E"
       transform="rotate(-37.59,120.1577,-68.43332)"
       id="text49">
      <path
         d="M 1.4238281,0 V -12.884766 H 10.740234 V -11.364258 H 3.1289063 V -7.4179687 H 10.256836 V -5.90625 H 3.1289063 V -1.5205078 H 11.039063 V 0 Z"
         id="path166" />
    </g>
    <g
       aria-label="S"
       transform="rotate(-25.57,147.46889,-155.80305)"
       id="text53">
      <path
         d="M 0.80859375,-4.1396484 2.4169922,-4.2802734 Q 2.53125,-3.3134766 2.9443359,-2.6894531 3.3662109,-2.0742188 4.2451172,-1.6875 5.1240234,-1.3095703 6.2226562,-1.3095703 7.1982422,-1.3095703 7.9453125,-1.5996094 8.6923828,-1.8896484 9.0527344,-2.390625 9.421875,-2.9003906 9.421875,-3.4980469 9.421875,-4.1044922 9.0703125,-4.5527344 8.71875,-5.0097656 7.9101562,-5.3173828 7.3916016,-5.5195312 5.6162109,-5.9414062 3.8408203,-6.3720703 3.1289063,-6.75 2.2060547,-7.2333984 1.7490234,-7.9453125 1.3007812,-8.6660156 1.3007812,-9.5537109 1.3007812,-10.529297 1.8544922,-11.373047 2.4082031,-12.225586 3.4716797,-12.665039 4.5351562,-13.104492 5.8359375,-13.104492 7.2685547,-13.104492 8.3583984,-12.638672 9.4570313,-12.181641 10.045898,-11.285156 10.634766,-10.388672 10.678711,-9.2548828 L 9.0439453,-9.1318359 Q 8.9121094,-10.353516 8.1474609,-10.977539 7.3916016,-11.601563 5.90625,-11.601563 4.359375,-11.601563 3.6474609,-11.030273 2.9443359,-10.467773 2.9443359,-9.6679688 2.9443359,-8.9736328 3.4453125,-8.5253906 3.9375,-8.0771484 6.0117187,-7.6025391 8.0947266,-7.1367187 8.8681641,-6.7851562 9.9931641,-6.2666016 10.529297,-5.4667969 11.06543,-4.6757812 11.06543,-3.6386719 11.06543,-2.6103516 10.476563,-1.6962891 9.8876953,-0.79101562 8.7802734,-0.28125 7.6816406,0.21972656 6.3017578,0.21972656 4.5527344,0.21972656 3.3662109,-0.29003906 2.1884766,-0.79980469 1.5117187,-1.8193359 0.84375,-2.8476563 0.80859375,-4.1396484 Z"
         id="path169" />
    </g>
    <g
       aria-label="E"
       transform="rotate(-13.55,222.06397,-394.41514)"
       id="text57">
      <path
         d="M 1.4238281,0 V -12.884766 H 10.740234 V -11.364258 H 3.1289063 V -7.4179687 H 10.256836 V -5.90625 H 3.1289063 V -1.5205078 H 11.039063 V 0 Z"
         id="path172" />
    </g>
    <g
       aria-label="R"
       transform="rotate(-1.21,1829.2196,-5504.692)"
       id="text61">
      <path
         d="M 1.4150391,0 V -12.884766 H 7.1279297 Q 8.8505859,-12.884766 9.7470703,-12.533203 10.643555,-12.19043 11.179688,-11.311523 11.71582,-10.432617 11.71582,-9.3691406 11.71582,-7.9980469 10.828125,-7.0576172 9.9404297,-6.1171875 8.0859375,-5.8623047 8.7626953,-5.5371094 9.1142578,-5.2207031 9.8613281,-4.5351562 10.529297,-3.5068359 L 12.770508,0 H 10.625977 L 8.9208984,-2.6806641 Q 8.1738281,-3.8408203 7.6904297,-4.4560547 7.2070312,-5.0712891 6.8203125,-5.3173828 6.4423828,-5.5634766 6.046875,-5.6601562 5.7568359,-5.7216797 5.0976562,-5.7216797 H 3.1201172 V 0 Z M 3.1201172,-7.1982422 H 6.7851562 Q 7.9541016,-7.1982422 8.6132813,-7.4355469 9.2724609,-7.6816406 9.6152344,-8.2089844 9.9580078,-8.7451172 9.9580078,-9.3691406 9.9580078,-10.283203 9.2900391,-10.87207 8.6308594,-11.460938 7.1982422,-11.460938 H 3.1201172 Z"
         id="path175" />
    </g>
    <g
       aria-label="V"
       transform="rotate(11.13,-125.43398,717.06511)"
       id="text65">
      <path
         d="M 5.0712891,0 0.07910156,-12.884766 H 1.9248047 L 5.2734375,-3.5244141 Q 5.6777344,-2.3994141 5.9501953,-1.4150391 6.2490234,-2.4697266 6.6445312,-3.5244141 L 10.125,-12.884766 H 11.865234 L 6.8203125,0 Z"
         id="path178" />
    </g>
    <g
       aria-label="A"
       transform="rotate(23.15,-25.311421,396.90248)"
       id="text69">
      <path
         d="M -0.02636719,0 4.921875,-12.884766 H 6.7587891 L 12.032227,0 H 10.089844 L 8.5869141,-3.9023438 H 3.1992188 L 1.7841797,0 Z M 3.6914063,-5.2910156 H 8.0595703 L 6.7148437,-8.859375 Q 6.0996094,-10.485352 5.8007812,-11.53125 5.5546875,-10.291992 5.1064453,-9.0703125 Z"
         id="path181" />
    </g>
    <g
       aria-label="T"
       transform="rotate(34.84,6.0188972,296.84065)"
       id="text73">
      <path
         d="M 4.6669922,0 V -11.364258 H 0.421875 V -12.884766 H 10.634766 V -11.364258 H 6.3720703 V 0 Z"
         id="path184" />
    </g>
    <g
       aria-label="I"
       transform="rotate(44.24,18.187601,257.17546)"
       id="text77">
      <path
         d="M 1.6787109,0 V -12.884766 H 3.3837891 V 0 Z"
         id="path187" />
    </g>
    <g
       aria-label="O"
       transform="rotate(54.63,29.914763,220.59687)"
       id="text81">
      <path
         d="M 0.87011719,-6.2753906 Q 0.87011719,-9.4833984 2.5927734,-11.293945 4.3154297,-13.113281 7.0400391,-13.113281 8.8242188,-13.113281 10.256836,-12.260742 11.689453,-11.408203 12.436523,-9.8789063 13.192383,-8.3583984 13.192383,-6.4248047 13.192383,-4.4648437 12.401367,-2.9179688 11.610352,-1.3710937 10.160156,-0.57128906 8.7099609,0.21972656 7.03125,0.21972656 5.2119141,0.21972656 3.7792969,-0.65917969 2.3466797,-1.5380859 1.6083984,-3.0585938 0.87011719,-4.5791016 0.87011719,-6.2753906 Z M 2.6279297,-6.2490234 Q 2.6279297,-3.9199219 3.8759766,-2.5751953 5.1328125,-1.2392578 7.0224609,-1.2392578 8.9472656,-1.2392578 10.186523,-2.5927734 11.43457,-3.9462891 11.43457,-6.4335937 11.43457,-8.0068359 10.898438,-9.1757813 10.371094,-10.353516 9.3427734,-10.995117 8.3232422,-11.645508 7.0488281,-11.645508 5.2382812,-11.645508 3.9287109,-10.397461 2.6279297,-9.1582031 2.6279297,-6.2490234 Z"
         id="path190" />
    </g>
    <g
       aria-label="N"
       transform="rotate(67.62,37.945188,194.85935)"
       id="text85">
      <path
         d="M 1.3710937,0 V -12.884766 H 3.1201172 L 9.8876953,-2.7685547 V -12.884766 H 11.522461 V 0 H 9.7734375 L 3.0058594,-10.125 V 0 Z"
         id="path193" />
    </g>
    <g
       transform="rotate(78.01,41.131446,181.78918)"
       id="text89" />
    <g
       aria-label="S"
       transform="rotate(88.06,46.256625,167.94556)"
       id="text93">
      <path
         d="M 0.80859375,-4.1396484 2.4169922,-4.2802734 Q 2.53125,-3.3134766 2.9443359,-2.6894531 3.3662109,-2.0742188 4.2451172,-1.6875 5.1240234,-1.3095703 6.2226562,-1.3095703 7.1982422,-1.3095703 7.9453125,-1.5996094 8.6923828,-1.8896484 9.0527344,-2.390625 9.421875,-2.9003906 9.421875,-3.4980469 9.421875,-4.1044922 9.0703125,-4.5527344 8.71875,-5.0097656 7.9101562,-5.3173828 7.3916016,-5.5195312 5.6162109,-5.9414062 3.8408203,-6.3720703 3.1289063,-6.75 2.2060547,-7.2333984 1.7490234,-7.9453125 1.3007812,-8.6660156 1.3007812,-9.5537109 1.3007812,-10.529297 1.8544922,-11.373047 2.4082031,-12.225586 3.4716797,-12.665039 4.5351562,-13.104492 5.8359375,-13.104492 7.2685547,-13.104492 8.3583984,-12.638672 9.4570313,-12.181641 10.045898,-11.285156 10.634766,-10.388672 10.678711,-9.2548828 L 9.0439453,-9.1318359 Q 8.9121094,-10.353516 8.1474609,-10.977539 7.3916016,-11.601563 5.90625,-11.601563 4.359375,-11.601563 3.6474609,-11.030273 2.9443359,-10.467773 2.9443359,-9.6679688 2.9443359,-8.9736328 3.4453125,-8.5253906 3.9375,-8.0771484 6.0117187,-7.6025391 8.0947266,-7.1367187 8.8681641,-6.7851562 9.9931641,-6.2666016 10.529297,-5.4667969 11.06543,-4.6757812 11.06543,-3.6386719 11.06543,-2.6103516 10.476563,-1.6962891 9.8876953,-0.79101562 8.7802734,-0.28125 7.6816406,0.21972656 6.3017578,0.21972656 4.5527344,0.21972656 3.3662109,-0.29003906 2.1884766,-0.79980469 1.5117187,-1.8193359 0.84375,-2.8476563 0.80859375,-4.1396484 Z"
         id="path197" />
    </g>
    <g
       aria-label="O"
       transform="rotate(100.73,50.558297,155.23288)"
       id="text97">
      <path
         d="M 0.87011719,-6.2753906 Q 0.87011719,-9.4833984 2.5927734,-11.293945 4.3154297,-13.113281 7.0400391,-13.113281 8.8242188,-13.113281 10.256836,-12.260742 11.689453,-11.408203 12.436523,-9.8789063 13.192383,-8.3583984 13.192383,-6.4248047 13.192383,-4.4648437 12.401367,-2.9179688 11.610352,-1.3710937 10.160156,-0.57128906 8.7099609,0.21972656 7.03125,0.21972656 5.2119141,0.21972656 3.7792969,-0.65917969 2.3466797,-1.5380859 1.6083984,-3.0585938 0.87011719,-4.5791016 0.87011719,-6.2753906 Z M 2.6279297,-6.2490234 Q 2.6279297,-3.9199219 3.8759766,-2.5751953 5.1328125,-1.2392578 7.0224609,-1.2392578 8.9472656,-1.2392578 10.186523,-2.5927734 11.43457,-3.9462891 11.43457,-6.4335937 11.43457,-8.0068359 10.898438,-9.1757813 10.371094,-10.353516 9.3427734,-10.995117 8.3232422,-11.645508 7.0488281,-11.645508 5.2382812,-11.645508 3.9287109,-10.397461 2.6279297,-9.1582031 2.6279297,-6.2490234 Z"
         id="path200" />
    </g>
    <g
       aria-label="C"
       transform="rotate(113.73,53.599782,145.05426)"
       id="text101">
      <path
         d="M 10.582031,-4.5175781 12.287109,-4.0869141 Q 11.750977,-1.9863281 10.353516,-0.87890625 8.9648438,0.21972656 6.9521484,0.21972656 4.8691406,0.21972656 3.5595703,-0.62402344 2.2587891,-1.4765625 1.5732422,-3.0849609 0.89648438,-4.6933594 0.89648438,-6.5390625 0.89648438,-8.5517578 1.6611328,-10.045898 2.4345703,-11.548828 3.8496094,-12.322266 5.2734375,-13.104492 6.9785156,-13.104492 8.9121094,-13.104492 10.230469,-12.120117 11.548828,-11.135742 12.067383,-9.3515625 L 10.388672,-8.9560547 Q 9.9404297,-10.362305 9.0878906,-11.003906 8.2353516,-11.645508 6.9433594,-11.645508 5.4580078,-11.645508 4.4560547,-10.933594 3.4628906,-10.22168 3.0585938,-9.0175781 2.6542969,-7.8222656 2.6542969,-6.5478516 2.6542969,-4.9042969 3.1289063,-3.6738281 3.6123047,-2.4521484 4.6230469,-1.8457031 5.6337891,-1.2392578 6.8115234,-1.2392578 8.2441406,-1.2392578 9.2373047,-2.0654297 10.230469,-2.8916016 10.582031,-4.5175781 Z"
         id="path203" />
    </g>
    <g
       aria-label="I"
       transform="rotate(123.78,53.85639,139.19892)"
       id="text105">
      <path
         d="M 1.6787109,0 V -12.884766 H 3.3837891 V 0 Z"
         id="path206" />
    </g>
    <g
       aria-label="E"
       transform="rotate(133.52,57.51537,131.94678)"
       id="text109">
      <path
         d="M 1.4238281,0 V -12.884766 H 10.740234 V -11.364258 H 3.1289063 V -7.4179687 H 10.256836 V -5.90625 H 3.1289063 V -1.5205078 H 11.039063 V 0 Z"
         id="path209" />
    </g>
    <g
       aria-label="T"
       transform="rotate(145.21,59.427905,125.13271)"
       id="text113">
      <path
         d="M 4.6669922,0 V -11.364258 H 0.421875 V -12.884766 H 10.634766 V -11.364258 H 6.3720703 V 0 Z"
         id="path212" />
    </g>
    <g
       aria-label="Y"
       transform="rotate(156.89,61.697215,118.56526)"
       id="text117">
      <path
         d="M 5.0185547,0 V -5.4580078 L 0.05273437,-12.884766 H 2.1269531 L 4.6669922,-9 Q 5.3701172,-7.9101562 5.9765625,-6.8203125 6.5566406,-7.8310547 7.3828125,-9.0966797 L 9.8789063,-12.884766 H 11.865234 L 6.7236328,-5.4580078 V 0 Z"
         id="path215" />
    </g>
  </g>
  <circle
     class="Rang"
     layer="4"
     id="Rang4"
     cx="125"
     cy="125"
     r="110"
     fill="none"
     stroke="currentColor"
     stroke-width="2"
     stroke-dasharray="0" />
  <circle
     class="Rang"
     layer="5"
     id="Rang5"
     cx="125"
     cy="125"
     r="79"
     fill="none"
     stroke="currentColor"
     stroke-width="2" />
  <circle
     class="Rang"
     layer="6"
     id="Rang6"
     cx="125"
     cy="125"
     r="73"
     fill="none"
     stroke="currentColor"
     stroke-width="8"
     stroke-dasharray="1% 0.5%" />
  <circle
     class="Rang"
     layer="7"
     id="Rang7"
     cx="125"
     cy="125"
     r="67"
     fill="none"
     stroke="currentColor"
     stroke-width="2" />
  <g
     class="Img_l"
     layer="8"
     id="Img8"
     x="125"
     y="119"
     s="58"
     al="0"
     transform="matrix(0.58,0,0,0.58,52.5,46.5)">
    <path
       fill="currentColor"
       fill-rule="nonzero"
       d="M 235.21,32.36 C 207.54,43.73 145.62,99.73 103.4,151.47 98.59,157.38 94.43,162.19 94,162.19 93.56,162.19 87.65,157.38 80.87,151.47 57.57,131.46 39.09,118.55 19.62,108.59 L 8.24,102.91 12.18,107.06 C 25.96,122.16 30.23,127.08 40.07,138.78 57.68,159.78 75.95,183.96 95.2,211.63 98.48,216.33 101.32,220.16 101.65,220.16 101.98,220.16 105.26,215.57 108.87,210.1 135.56,169.19 186.97,98.75 221.97,55.1 240.13,32.68 242.32,29.84 241.66,29.84 241.44,29.84 238.49,31.04 235.21,32.35 Z"
       id="path124" />
  </g>
  <g
     class="Img_l"
     layer="15"
     id="Img15"
     x="125"
     y="125"
     s="103"
     al="0"
     transform="matrix(1.03,0,0,1.03,-3.75,-3.75)">
    <path
       fill="currentColor"
       d="M 124.93,6.58 126.16,10.32 130.13,10.35 126.95,12.68 128.14,16.47 124.95,14.16 121.72,16.47 122.93,12.72 119.74,10.35 H 123.68 Z M 141.15,7.76 141.85,11.64 145.78,12.21 142.31,14.08 142.98,17.99 140.13,15.27 136.62,17.11 138.33,13.56 135.49,10.79 139.39,11.32 Z M 157.06,11.13 157.23,15.06 161.04,16.17 157.36,17.54 157.48,21.51 155.03,18.43 151.3,19.78 153.48,16.49 151.04,13.36 154.84,14.41 Z M 172.26,16.63 171.89,20.55 175.52,22.16 171.67,23.02 171.26,26.97 169.26,23.58 165.38,24.41 167.97,21.45 166,18.01 169.61,19.58 Z M 186.53,24.15 185.63,27.99 189,30.08 185.08,30.41 184.13,34.26 182.6,30.63 178.65,30.92 181.62,28.35 180.13,24.67 183.5,26.71 Z M 199.64,33.49 198.23,37.17 201.29,39.7 197.35,39.49 195.89,43.18 194.87,39.38 190.91,39.12 194.21,36.98 193.24,33.13 196.29,35.62 Z M 211.37,44.45 209.46,47.9 212.15,50.82 208.28,50.08 206.32,53.53 205.83,49.63 201.95,48.84 205.51,47.16 205.07,43.22 207.76,46.1 Z M 221.49,56.91 219.14,60.07 221.4,63.33 217.66,62.07 215.26,65.22 215.31,61.29 211.56,59.98 215.32,58.8 215.42,54.84 217.69,58.05 Z M 229.96,70.65 227.2,73.46 228.99,77 225.46,75.24 222.65,78.03 223.24,74.14 219.71,72.33 223.59,71.68 224.23,67.76 226.04,71.26 Z M 236.47,85.4 233.35,87.8 234.64,91.55 231.39,89.33 228.21,91.72 229.33,87.94 226.08,85.66 230.02,85.55 231.18,81.76 232.5,85.47 Z M 240.89,101.03 237.47,102.98 238.24,106.87 235.32,104.23 231.85,106.16 233.47,102.57 230.56,99.87 234.48,100.3 236.15,96.7 236.95,100.56 Z M 243.14,117.14 239.49,118.6 239.72,122.56 237.19,119.55 233.49,120.98 235.59,117.65 233.07,114.58 236.89,115.53 239.04,112.2 239.31,116.13 Z M 243.11,133.39 239.29,134.34 238.97,138.3 236.88,134.96 233.02,135.89 235.55,132.87 233.48,129.48 237.13,130.95 239.71,127.94 239.44,131.87 Z M 240.78,149.48 236.87,149.91 236.02,153.79 234.4,150.2 230.45,150.58 233.36,147.94 231.78,144.3 235.19,146.25 238.16,143.62 237.36,147.48 Z M 236.29,165.08 232.35,164.97 230.98,168.7 229.87,164.92 225.9,164.76 229.16,162.54 228.08,158.72 231.2,161.12 234.5,158.92 233.18,162.63 Z M 229.72,179.81 225.84,179.16 223.97,182.66 223.38,178.77 219.48,178.07 223,176.32 222.45,172.39 225.22,175.19 228.79,173.46 226.97,176.95 Z M 221.19,193.51 217.43,192.34 215.11,195.55 215.06,191.61 211.28,190.39 215.01,189.13 215,185.16 217.36,188.32 221.13,187.09 218.86,190.3 Z M 211.02,205.93 207.46,204.25 204.71,207.12 205.2,203.21 201.63,201.48 205.49,200.75 206.03,196.82 207.93,200.26 211.84,199.56 209.14,202.43 Z M 199.25,216.83 195.95,214.69 192.84,217.16 193.86,213.35 190.55,211.15 194.48,210.95 195.55,207.13 196.96,210.8 200.93,210.63 197.87,213.11 Z M 186.1,226.12 183.11,223.55 179.7,225.57 181.22,221.94 178.25,219.31 182.17,219.64 183.75,216 184.65,219.84 188.6,220.21 185.23,222.25 Z M 171.79,233.59 169.19,230.63 165.54,232.17 167.54,228.77 164.95,225.76 168.79,226.63 170.85,223.24 171.22,227.16 175.08,228.07 171.47,229.63 Z M 156.57,239.02 154.39,235.74 150.56,236.76 153.01,233.67 150.86,230.34 154.54,231.72 157.04,228.64 156.88,232.57 160.57,234.01 156.78,235.06 Z M 140.64,242.32 138.93,238.77 135,239.26 137.84,236.54 136.17,232.94 139.63,234.81 142.53,232.1 141.82,235.98 145.29,237.9 141.39,238.42 Z M 124.42,243.42 123.21,239.67 119.25,239.62 122.44,237.31 121.26,233.52 124.44,235.84 127.68,233.56 126.46,237.3 129.63,239.67 125.7,239.66 Z M 108.21,242.15 107.53,238.27 103.6,237.67 107.08,235.83 106.44,231.91 109.27,234.65 112.79,232.82 111.07,236.36 113.89,239.15 109.99,238.6 Z M 92.32,238.68 92.17,234.75 88.36,233.63 92.06,232.27 91.96,228.3 94.39,231.4 98.13,230.07 95.93,233.34 98.35,236.49 94.56,235.41 Z M 77.15,233.1 77.55,229.18 73.93,227.55 77.78,226.71 78.22,222.76 80.2,226.16 84.09,225.36 81.47,228.3 83.43,231.75 79.83,230.16 Z M 62.93,225.49 63.86,221.66 60.5,219.55 64.42,219.25 65.39,215.4 66.9,219.03 70.85,218.77 67.86,221.33 69.33,225.01 65.98,222.95 Z M 49.87,216.08 51.31,212.41 48.26,209.86 52.2,210.09 53.68,206.41 54.68,210.22 58.63,210.5 55.32,212.62 56.28,216.48 53.23,213.97 Z M 38.21,205.05 40.14,201.61 37.47,198.68 41.34,199.44 43.31,196 43.77,199.91 47.66,200.72 44.08,202.38 44.51,206.32 41.83,203.43 Z M 28.16,192.53 30.53,189.39 28.29,186.11 32.01,187.4 34.44,184.26 34.36,188.19 38.1,189.53 34.33,190.68 34.22,194.64 31.96,191.41 Z M 19.77,178.74 22.55,175.95 20.78,172.4 24.29,174.19 27.12,171.41 26.51,175.29 30.03,177.13 26.14,177.76 25.48,181.67 23.69,178.16 Z M 13.35,163.95 16.48,161.57 15.21,157.81 18.45,160.06 21.64,157.69 20.5,161.45 23.74,163.75 19.8,163.84 18.61,167.63 17.31,163.91 Z M 9.02,148.29 12.45,146.36 11.7,142.47 14.6,145.13 18.08,143.22 16.44,146.8 19.34,149.51 15.42,149.07 13.73,152.65 12.95,148.79 Z M 6.86,132.18 10.52,130.73 10.31,126.77 12.82,129.8 16.53,128.39 14.42,131.71 16.91,134.79 13.1,133.81 10.93,137.14 10.69,133.21 Z M 7,115.93 10.82,114.99 11.16,111.04 13.23,114.39 17.1,113.49 14.55,116.49 16.6,119.88 12.95,118.4 10.36,121.39 10.65,117.47 Z M 9.42,99.84 13.33,99.44 14.21,95.57 15.8,99.17 19.75,98.81 16.82,101.43 18.39,105.08 14.98,103.11 12,105.72 12.83,101.87 Z M 13.99,84.28 17.93,84.41 19.32,80.69 20.41,84.48 24.38,84.66 21.12,86.86 22.17,90.69 19.06,88.27 15.75,90.45 17.1,86.75 Z M 20.65,69.59 24.53,70.26 26.42,66.77 26.98,70.67 30.89,71.38 27.35,73.12 27.88,77.06 25.13,74.24 21.55,75.95 23.39,72.46 Z M 29.26,55.94 33.01,57.13 35.36,53.93 35.39,57.87 39.15,59.12 35.42,60.36 35.4,64.32 33.06,61.15 29.28,62.36 31.58,59.16 Z M 39.5,43.58 43.05,45.28 45.81,42.42 45.3,46.33 48.87,48.08 45,48.79 44.44,52.72 42.55,49.27 38.65,49.95 41.36,47.09 Z M 51.33,32.75 54.62,34.91 57.75,32.46 56.71,36.26 60,38.48 56.07,38.66 54.98,42.48 53.59,38.79 49.62,38.93 52.7,36.47 Z M 64.54,23.52 67.51,26.12 70.94,24.12 69.39,27.74 72.35,30.38 68.43,30.03 66.83,33.66 65.95,29.82 62,29.42 65.38,27.4 Z M 78.89,16.15 81.47,19.12 85.14,17.6 83.11,20.98 85.68,24.01 81.85,23.12 79.77,26.5 79.42,22.58 75.56,21.64 79.19,20.1 Z M 93.89,10.87 96.06,14.17 99.9,13.16 97.44,16.23 99.57,19.57 95.89,18.18 93.38,21.25 93.56,17.32 89.87,15.87 93.67,14.84 Z M 109.28,7.71 110.99,11.25 114.93,10.76 112.08,13.49 113.76,17.08 110.3,15.21 107.4,17.93 108.1,14.05 104.63,12.13 108.53,11.6 Z"
       id="path127" />
  </g>
</svg>
