<?xml version="1.0" encoding="utf-8"?>
<!-- Generator: Adobe Illustrator 24.3.0, SVG Export Plug-In . SVG Version: 6.00 Build 0)  -->
<svg version="1.1" id="Layer_1" xmlns="http://www.w3.org/2000/svg" xmlns:xlink="http://www.w3.org/1999/xlink" x="0px" y="0px"
	 viewBox="0 0 400 400" style="enable-background:new 0 0 400 400;" xml:space="preserve">
<style type="text/css">
	.st0{fill:rgb(178, 200, 254);}
	.st1{fill:rgb(226, 234, 254);}
	.st2{fill:rgb(76, 130, 254);}
	.st3{fill:rgb(135, 172, 254);}
</style>
<g>
	<path class="st0" d="M302.11,127.99l41.67-41.84l5.79,7.44c26.79,34.39,43.82,75.57,49.28,119.06l1.16,9.26h-59.03l-0.99-6.94
		c-4.63-29.76-15.87-57.05-33.73-81.19L302.11,127.99z"/>
	<g>
		<path class="st1" d="M340.97,264.41H400l-1.16,9.26c-5.46,43.49-22.49,84.66-49.28,119.06l-5.79,7.28l-41.67-41.84l4.13-5.62
			c17.86-24.14,29.1-51.43,33.73-81.19L340.97,264.41z"/>
		<path class="st2" d="M41.83,98.06L0,56.22l7.44-5.62C41.83,23.48,83.01,6.45,126.33,1.16L135.59,0v59.2l-6.95,0.99
			c-29.6,4.63-56.88,15.87-81.02,33.57L41.83,98.06z"/>
		<path class="st3" d="M185.2,60.19l-7.11-0.99V0l9.26,1.16c43.32,5.29,84.5,22.32,119.06,49.44l7.44,5.62l-42,41.84l-5.62-4.3
			C242.41,76.23,214.47,64.65,185.2,60.19z"/>
	</g>
</g>
</svg>
