<?xml version="1.0" encoding="utf-8"?>
<!-- Generator: Adobe Illustrator 24.3.0, SVG Export Plug-In . SVG Version: 6.00 Build 0)  -->
<svg version="1.1" id="Layer_1" xmlns="http://www.w3.org/2000/svg" xmlns:xlink="http://www.w3.org/1999/xlink" x="0px" y="0px"
	 viewBox="0 0 600 187.12" style="enable-background:new 0 0 600 187.12;" xml:space="preserve">
<style type="text/css">
	.st0{fill:#FFFFFF;}
	.st1{fill:rgb(178, 200, 254);}
	.st2{fill:rgb(226, 234, 254);}
	.st3{fill:rgb(76, 130, 254);}
	.st4{fill:rgb(135, 172, 254);}
</style>
<g>
	<g>
		<path class="st0" d="M198.15,52.81c-1.47,0-2.21-0.63-2.21-1.89c0-0.58,0.18-1.21,0.55-1.89l2.21-3.79
			c0.37-0.68,0.55-1.31,0.55-1.89c0-1.26-0.71-1.89-2.13-1.89c-1.05,0-2.15,0.37-3.31,1.11c-1.16,0.74-2.05,1.63-2.68,2.69
			l-15.31,26.51c-0.38,0.68-0.56,1.31-0.56,1.89c0,1.26,0.71,1.89,2.13,1.89c1.05,0,2.17-0.37,3.35-1.1
			c1.18-0.74,2.07-1.63,2.65-2.68l6.56-11.36c0.63-1.05,1.52-1.95,2.68-2.69c1.16-0.74,2.26-1.11,3.31-1.11h18.93
			c1.47,0,2.21,0.63,2.21,1.89c0,0.58-0.21,1.21-0.63,1.89l-8.76,15.15c-0.58,1.05-1.46,1.95-2.64,2.68
			c-1.18,0.74-2.28,1.11-3.27,1.11h-53.02c-1.47,0-2.21-0.63-2.21-1.89c0-0.58,0.18-1.21,0.55-1.89l19.73-34.09
			c0.58-1.05,1.46-1.95,2.64-2.68c1.18-0.74,2.3-1.1,3.35-1.1h53.02c1.42,0,2.13,0.63,2.13,1.89c0,0.58-0.18,1.21-0.55,1.89
			l-4.42,7.57c-0.58,1.05-1.46,1.95-2.64,2.68c-1.18,0.74-2.28,1.11-3.27,1.11H198.15z"/>
		<path class="st0" d="M262.14,52.81c-1.42,0-2.13-0.63-2.13-1.89c0-0.58,0.18-1.21,0.55-1.89l2.21-3.79
			c0.37-0.68,0.55-1.31,0.55-1.89c0-1.26-0.74-1.89-2.21-1.89c-1,0-2.09,0.37-3.28,1.1c-1.18,0.74-2.07,1.63-2.65,2.68l-4.42,7.57
			c-0.36,0.69-0.55,1.32-0.55,1.9c0,1.26,0.74,1.9,2.21,1.9h26.51c1.42,0,2.13,0.63,2.13,1.89c0,0.58-0.18,1.21-0.55,1.89
			l-8.76,15.15c-0.58,1.05-1.46,1.95-2.64,2.68c-1.18,0.74-2.3,1.11-3.35,1.11h-53.02c-1.42,0-2.13-0.63-2.13-1.89
			c0-0.58,0.18-1.21,0.55-1.89l4.34-7.57c0.63-1.05,1.52-1.95,2.68-2.68c1.16-0.74,2.26-1.11,3.31-1.11h18.94
			c1.47,0,2.21,0.63,2.21,1.89c0,0.58-0.21,1.21-0.63,1.89l-2.13,3.79c-0.42,0.68-0.63,1.32-0.63,1.89c0,1.26,0.73,1.89,2.2,1.89
			c1.05,0,2.14-0.37,3.3-1.11c1.15-0.74,2.04-1.64,2.67-2.7l4.35-7.57c0.44-0.68,0.67-1.31,0.67-1.88c0-1.25-0.74-1.88-2.21-1.88
			h-26.51c-1.47,0-2.21-0.63-2.21-1.89c0-0.58,0.21-1.21,0.63-1.89l8.68-15.15c0.63-1.05,1.52-1.95,2.68-2.68
			c1.16-0.74,2.26-1.1,3.31-1.1h53.02c1.47,0,2.21,0.63,2.21,1.89c0,0.58-0.21,1.21-0.63,1.89l-4.34,7.57
			c-0.58,1.05-1.46,1.95-2.64,2.68c-1.18,0.74-2.3,1.11-3.35,1.11H262.14z"/>
		<path class="st0" d="M358.33,37.66c1.47,0,2.21,0.63,2.21,1.89c0,0.58-0.18,1.21-0.55,1.89l-19.73,34.09
			c-0.58,1.05-1.46,1.95-2.64,2.68c-1.18,0.74-2.3,1.11-3.35,1.11h-26.51c-1,0-2.09,0.37-3.27,1.11c-1.18,0.74-2.06,1.63-2.64,2.69
			l-12.56,21.77c-0.79,1.37-1.63,2.05-2.53,2.05c-0.47,0-0.87-0.26-1.18-0.79l-10.42-17.75c-0.37-0.58-0.55-1.32-0.55-2.21
			c0-1.32,0.32-2.5,0.95-3.55l23.83-41.19c0.58-1.05,1.45-1.95,2.6-2.68c1.16-0.74,2.26-1.1,3.31-1.1H358.33z M331.25,45.23
			c0.38-0.68,0.56-1.31,0.56-1.89c0-1.26-0.71-1.89-2.13-1.89c-1.05,0-2.17,0.37-3.36,1.1c-1.18,0.74-2.07,1.63-2.64,2.68
			l-15.29,26.52c-0.43,0.68-0.64,1.31-0.64,1.89c0,1.26,0.74,1.89,2.21,1.89c1.05,0,2.16-0.37,3.32-1.1
			c1.16-0.74,2.05-1.63,2.68-2.68L331.25,45.23z"/>
		<path class="st0" d="M394.7,52.81c-1.42,0-2.13-0.63-2.13-1.89c0-0.58,0.18-1.21,0.55-1.89l2.21-3.79
			c0.37-0.68,0.55-1.31,0.55-1.89c0-1.26-0.74-1.89-2.21-1.89c-1,0-2.09,0.37-3.28,1.1c-1.18,0.74-2.07,1.63-2.65,2.68l-4.42,7.57
			c-0.36,0.69-0.55,1.32-0.55,1.9c0,1.26,0.74,1.9,2.21,1.9h26.51c1.42,0,2.13,0.63,2.13,1.89c0,0.58-0.18,1.21-0.55,1.89
			l-8.76,15.15c-0.58,1.05-1.46,1.95-2.64,2.68c-1.18,0.74-2.3,1.11-3.35,1.11h-53.02c-1.42,0-2.13-0.63-2.13-1.89
			c0-0.58,0.18-1.21,0.55-1.89l4.34-7.57c0.63-1.05,1.52-1.95,2.68-2.68c1.16-0.74,2.26-1.11,3.31-1.11H373
			c1.47,0,2.21,0.63,2.21,1.89c0,0.58-0.21,1.21-0.63,1.89l-2.13,3.79c-0.42,0.68-0.63,1.32-0.63,1.89c0,1.26,0.73,1.89,2.2,1.89
			c1.05,0,2.14-0.37,3.3-1.11c1.15-0.74,2.04-1.64,2.67-2.7l4.35-7.57c0.44-0.68,0.67-1.31,0.67-1.88c0-1.25-0.74-1.88-2.21-1.88
			h-26.51c-1.47,0-2.21-0.63-2.21-1.89c0-0.58,0.21-1.21,0.63-1.89l8.68-15.15c0.63-1.05,1.52-1.95,2.68-2.68
			c1.16-0.74,2.26-1.1,3.31-1.1h53.02c1.47,0,2.21,0.63,2.21,1.89c0,0.58-0.21,1.21-0.63,1.89l-4.34,7.57
			c-0.58,1.05-1.46,1.95-2.64,2.68c-1.18,0.74-2.3,1.11-3.35,1.11H394.7z"/>
	</g>
	<g>
		<g>
			<path class="st0" d="M11.55,147.91c-7.21,0-10.84-2.27-10.84-6.81v-12.92c0-4.58,3.62-6.81,10.84-6.81h17.94
				c1.17,0,1.43,0.66,1.43,1.98c0,1.32-0.26,1.98-1.43,1.98H11.7c-4.28,0-6.15,1.24-6.15,2.86v12.92c0,1.57,1.87,2.86,6.15,2.86
				h17.83c1.17,0,1.39,0.66,1.39,1.98c0,1.28-0.22,1.98-1.39,1.98H11.55z"/>
			<path class="st0" d="M29.52,148.63H11.55C3.89,148.63,0,146.09,0,141.1v-12.92c0-4.99,3.89-7.52,11.55-7.52h17.94
				c2.14,0,2.14,1.89,2.14,2.69c0,0.8,0,2.69-2.14,2.69H11.7c-3.35,0-5.44,0.82-5.44,2.14v12.92c0,1.3,2.13,2.14,5.44,2.14h17.83
				c2.1,0,2.1,1.82,2.1,2.69C31.63,146.74,31.63,148.63,29.52,148.63z M11.55,122.08c-6.81,0-10.12,1.99-10.12,6.1v12.92
				c0,4.1,3.31,6.1,10.12,6.1h17.98c0.48,0,0.68,0,0.68-1.26c0-1.26-0.17-1.26-0.68-1.26H11.7c-6.37,0-6.86-2.73-6.86-3.57v-12.92
				c0-1.07,0.67-3.57,6.86-3.57h17.79c0.51,0,0.72,0,0.72-1.26c0-1.26-0.21-1.26-0.72-1.26H11.55z"/>
		</g>
		<g>
			<path class="st0" d="M45.37,147.91c-6.88,0-10.36-2.12-10.36-6.37v-1.94c0-4.28,3.48-6.37,10.36-6.37h15.67v-0.04
				c0-1.39-1.76-2.27-5.86-2.27h-3.44c-1.1,0-1.35-0.62-1.35-1.83c0-1.25,0.26-1.87,1.35-1.87h3.59c6.88,0,10.36,2.09,10.36,6.37
				v7.94c0,4.25-3.48,6.37-10.36,6.37H45.37z M61.03,141.54v-4.76H45.51c-4.1,0-5.86,1.17-5.86,2.67v2.09
				c0,1.46,1.76,2.67,5.86,2.67h9.67C59.28,144.22,61.03,143.01,61.03,141.54z"/>
			<path class="st0" d="M55.32,148.63h-9.96c-7.35,0-11.07-2.38-11.07-7.08v-1.94c0-4.7,3.73-7.08,11.07-7.08h14.56
				c-0.72-0.57-2.38-0.88-4.75-0.88h-3.44c-2.07,0-2.07-1.85-2.07-2.54c0-0.71,0-2.58,2.07-2.58h3.59c7.35,0,11.07,2.38,11.07,7.08
				v7.94C66.4,146.24,62.67,148.63,55.32,148.63z M45.37,133.95c-6.49,0-9.65,1.85-9.65,5.66v1.94c0,3.81,3.16,5.66,9.65,5.66h9.96
				c6.49,0,9.65-1.85,9.65-5.66v-7.94c0-3.81-3.16-5.66-9.65-5.66h-3.59c-0.45,0-0.64,0-0.64,1.15c0,1.12,0.19,1.12,0.64,1.12h3.44
				c4.36,0,6.57,1,6.57,2.98v0.71l-0.71,0.04H45.37z M55.18,144.93h-9.66c-5.93,0-6.57-2.37-6.57-3.39v-2.09
				c0-1.02,0.64-3.39,6.57-3.39h16.24v5.47C61.75,142.56,61.11,144.93,55.18,144.93z M45.51,137.5c-3.17,0-5.14,0.75-5.14,1.96v2.09
				c0,1.19,2.02,1.96,5.14,1.96h9.66c3.13,0,5.15-0.77,5.15-1.96v-4.05H45.51z"/>
		</g>
		<g>
			<path class="st0" d="M83.43,127.23c1.1,0,1.32,0.66,1.32,1.87c0,1.21-0.22,1.83-1.32,1.83h-2.86c-3.62,0-4.83,0.95-4.83,2.63
				v12.78c0,1.39-0.77,1.72-2.34,1.72c-1.54,0-2.31-0.33-2.31-1.72v-12.78c0-4.21,3.37-6.33,9.48-6.33H83.43z"/>
			<path class="st0" d="M73.4,148.77c-0.9,0-3.02,0-3.02-2.43v-12.78c0-2.63,1.32-7.05,10.19-7.05h2.86c2.03,0,2.03,1.81,2.03,2.58
				c0,0.76,0,2.54-2.03,2.54h-2.86c-4.12,0-4.12,1.25-4.12,1.92v12.78C76.45,148.77,74.31,148.77,73.4,148.77z M80.57,127.94
				c-5.82,0-8.77,1.89-8.77,5.62v12.78c0,0.68,0.07,1.01,1.59,1.01c1.63,0,1.63-0.36,1.63-1.01v-12.78c0-3,3.17-3.35,5.55-3.35h2.86
				c0.45,0,0.6,0,0.6-1.12c0-1.15-0.18-1.15-0.6-1.15H80.57z"/>
		</g>
		<g>
			<path class="st0" d="M112.85,136.42c-7.21,0-10.84-2.27-10.84-6.81v-1.43c0-4.58,3.63-6.81,10.84-6.81h3.66
				c1.17,0,1.43,0.66,1.43,1.98c0,1.32-0.26,1.98-1.43,1.98h-3.77c-4.28,0-5.89,1.24-5.89,2.86v1.43c0,1.57,1.61,2.86,5.89,2.86
				h8.64c7.21,0,10.84,2.27,10.84,6.81v1.83c0,4.58-3.62,6.81-10.84,6.81h-17.94c-1.17,0-1.43-0.66-1.43-1.98
				c0-1.32,0.26-1.98,1.43-1.98h18.05c4.28,0,5.89-1.24,5.89-2.86v-1.83c0-1.57-1.61-2.86-5.89-2.86H112.85z"/>
			<path class="st0" d="M121.38,148.63h-17.94c-2.14,0-2.14-1.89-2.14-2.69c0-0.8,0-2.69,2.14-2.69h18.05
				c3.29,0,5.18-0.78,5.18-2.14v-1.83c0-1.36-1.89-2.14-5.18-2.14h-8.64c-7.66,0-11.55-2.53-11.55-7.52v-1.43
				c0-4.99,3.89-7.52,11.55-7.52h3.66c2.14,0,2.14,1.89,2.14,2.69c0,0.8,0,2.69-2.14,2.69h-3.77c-3.29,0-5.18,0.78-5.18,2.14v1.43
				c0,1.36,1.89,2.14,5.18,2.14h8.64c7.66,0,11.55,2.53,11.55,7.52v1.83C132.93,146.09,129.04,148.63,121.38,148.63z M103.44,144.67
				c-0.51,0-0.71,0-0.71,1.26c0,1.26,0.21,1.26,0.71,1.26h17.94c6.81,0,10.12-1.99,10.12-6.1v-1.83c0-4.1-3.31-6.1-10.12-6.1h-8.64
				c-5.75,0-6.61-2.24-6.61-3.57v-1.43c0-1.33,0.86-3.57,6.61-3.57h3.77c0.51,0,0.71,0,0.71-1.26c0-1.26-0.21-1.26-0.71-1.26h-3.66
				c-6.81,0-10.12,1.99-10.12,6.1v1.43c0,4.1,3.31,6.1,10.12,6.1h8.64c5.75,0,6.61,2.24,6.61,3.57v1.83c0,1.33-0.86,3.57-6.61,3.57
				H103.44z"/>
		</g>
		<g>
			<path class="st0" d="M137.4,146.34v-23.39c0-1.39,0.77-1.72,2.31-1.72c1.57,0,2.34,0.33,2.34,1.72v4.28h14.06
				c6.88,0,10.36,2.09,10.36,6.37v12.74c0,1.39-0.77,1.72-2.34,1.72c-1.54,0-2.31-0.33-2.31-1.72V133.6c0-1.5-1.76-2.67-5.86-2.67
				h-13.91v15.41c0,1.39-0.77,1.72-2.34,1.72C138.17,148.06,137.4,147.73,137.4,146.34z"/>
			<path class="st0" d="M164.13,148.77c-0.9,0-3.02,0-3.02-2.43V133.6c0-1.21-1.97-1.96-5.14-1.96h-13.2v14.7
				c0,2.43-2.14,2.43-3.06,2.43c-0.9,0-3.02,0-3.02-2.43v-23.39c0-2.43,2.12-2.43,3.02-2.43c0.91,0,3.06,0,3.06,2.43v3.57h13.35
				c7.35,0,11.07,2.38,11.07,7.08v12.74C167.18,148.77,165.04,148.77,164.13,148.77z M141.34,130.21h14.63
				c5.93,0,6.57,2.37,6.57,3.38v12.74c0,0.68,0.07,1.01,1.59,1.01c1.63,0,1.63-0.36,1.63-1.01V133.6c0-3.81-3.16-5.66-9.65-5.66
				h-14.77v-5c0-0.65,0-1.01-1.63-1.01c-1.52,0-1.59,0.33-1.59,1.01v23.39c0,0.68,0.07,1.01,1.59,1.01c1.63,0,1.63-0.36,1.63-1.01
				V130.21z"/>
		</g>
		<g>
			<path class="st0" d="M182.24,127.23h7.98c6.88,0,10.36,2.09,10.36,6.37v7.94c0,4.25-3.48,6.37-10.36,6.37h-7.98
				c-6.88,0-10.36-2.12-10.36-6.37v-7.94C171.88,129.32,175.36,127.23,182.24,127.23z M195.93,133.6c0-1.5-1.76-2.67-5.86-2.67
				h-7.69c-4.1,0-5.86,1.17-5.86,2.67v7.94c0,1.46,1.76,2.67,5.86,2.67h7.69c4.1,0,5.86-1.21,5.86-2.67V133.6z"/>
			<path class="st0" d="M190.22,148.63h-7.98c-7.35,0-11.07-2.38-11.07-7.08v-7.94c0-4.7,3.73-7.08,11.07-7.08h7.98
				c7.35,0,11.08,2.38,11.08,7.08v7.94C201.29,146.24,197.57,148.63,190.22,148.63z M182.24,127.94c-6.49,0-9.65,1.85-9.65,5.66
				v7.94c0,3.81,3.16,5.66,9.65,5.66h7.98c6.49,0,9.65-1.85,9.65-5.66v-7.94c0-3.81-3.16-5.66-9.65-5.66H182.24z M190.07,144.93
				h-7.69c-5.93,0-6.57-2.37-6.57-3.39v-7.94c0-1.02,0.64-3.38,6.57-3.38h7.69c5.93,0,6.57,2.37,6.57,3.38v7.94
				C196.64,142.56,196,144.93,190.07,144.93z M182.38,131.64c-3.17,0-5.14,0.75-5.14,1.96v7.94c0,1.19,2.02,1.96,5.14,1.96h7.69
				c3.12,0,5.14-0.77,5.14-1.96v-7.94c0-1.21-1.97-1.96-5.14-1.96H182.38z"/>
		</g>
		<g>
			<path class="st0" d="M217.99,146.81c-0.44,0.84-1.32,1.25-2.63,1.25s-2.31-0.4-2.75-1.32l-8.42-17.65
				c-0.15-0.26-0.22-0.48-0.22-0.7c0-0.81,1.02-1.32,2.53-1.32c1.06,0,1.72,0.26,1.98,0.84l6.85,15.37l7.69-14.79
				c0.59-1.1,1.13-1.43,2.38-1.43c1.46,0,1.76,0.44,2.27,1.43l7.39,14.79l6.99-15.37c0.26-0.59,0.95-0.84,2.01-0.84
				c1.5,0,2.53,0.51,2.53,1.32c0,0.22-0.07,0.44-0.22,0.7l-8.64,17.65c-0.44,0.92-1.43,1.32-2.71,1.32c-1.21,0-2.23-0.37-2.67-1.25
				l-7.03-14.28L217.99,146.81z"/>
			<path class="st0" d="M235.02,148.77c-1.61,0-2.78-0.58-3.31-1.64l-6.4-13.01l-6.68,13.02c-0.56,1.08-1.66,1.63-3.27,1.63
				c-2.12,0-3.01-0.94-3.39-1.72l-8.42-17.65c-0.19-0.33-0.29-0.66-0.29-1c0-1.23,1.27-2.03,3.24-2.03c0.51,0,2.08,0,2.63,1.27
				l6.24,14.02l7-13.48c0.71-1.34,1.5-1.81,3.01-1.81c1.83,0,2.32,0.69,2.9,1.81l6.73,13.46l6.37-14.01
				c0.36-0.83,1.26-1.26,2.66-1.26c1.97,0,3.24,0.8,3.24,2.03c0,0.34-0.1,0.67-0.31,1.05l-8.62,17.61
				C237.99,147.84,237.1,148.77,235.02,148.77z M225.33,130.95l7.66,15.55c0.37,0.74,1.43,0.85,2.03,0.85
				c1.08,0,1.77-0.31,2.07-0.91l8.64-17.65c0.11-0.19,0.15-0.3,0.15-0.38c0-0.25-0.65-0.6-1.81-0.6c-0.44,0-1.2,0.05-1.36,0.41
				l-7.61,16.74l-8.06-16.13c-0.44-0.85-0.54-1.03-1.63-1.03c-0.98,0-1.29,0.19-1.75,1.05l-8.37,16.1l-7.45-16.73
				c-0.12-0.28-0.57-0.42-1.33-0.42c-1.17,0-1.81,0.36-1.81,0.6c0,0.08,0.04,0.19,0.13,0.35l8.44,17.69c0.29,0.61,1,0.91,2.1,0.91
				c1.39,0,1.81-0.49,2-0.86L225.33,130.95z"/>
		</g>
		<g>
			<path class="st0" d="M265.61,121.37h20.76c6.63,0,10.76,2.34,10.76,5.93v5.31c0,3.59-4.14,5.93-10.76,5.93h-17.61v7.8
				c0,1.39-0.84,1.72-2.45,1.72c-1.57,0-2.42-0.33-2.42-1.72v-23.28C263.89,121.92,264.44,121.37,265.61,121.37z M268.76,125.33
				v9.26h17.17c4.98,0,6.37-1.02,6.37-2.34v-4.58c0-1.32-1.39-2.34-6.37-2.34H268.76z"/>
			<path class="st0" d="M266.31,148.77c-0.94,0-3.13,0-3.13-2.43v-23.28c0-1.55,0.86-2.4,2.43-2.4h20.76
				c6.97,0,11.48,2.61,11.48,6.64v5.31c0,4.04-4.5,6.64-11.48,6.64h-16.9v7.09C269.47,148.77,267.25,148.77,266.31,148.77z
				 M265.61,122.08c-0.77,0-1.01,0.23-1.01,0.97v23.28c0,0.58,0,1.01,1.7,1.01c1.74,0,1.74-0.4,1.74-1.01v-8.51h18.32
				c6.11,0,10.05-2.05,10.05-5.22v-5.31c0-3.17-3.94-5.22-10.05-5.22H265.61z M285.93,135.3h-17.88v-10.69h17.88
				c3.04,0,7.08,0.32,7.08,3.06v4.57C293.01,134.98,288.97,135.3,285.93,135.3z M269.47,133.87h16.46c2.11,0,5.66-0.21,5.66-1.63
				v-4.57c0-1.42-3.55-1.63-5.66-1.63h-16.46V133.87z"/>
		</g>
		<g>
			<path class="st0" d="M314.55,127.23c1.1,0,1.32,0.66,1.32,1.87c0,1.21-0.22,1.83-1.32,1.83h-2.86c-3.62,0-4.83,0.95-4.83,2.63
				v12.78c0,1.39-0.77,1.72-2.34,1.72c-1.54,0-2.31-0.33-2.31-1.72v-12.78c0-4.21,3.37-6.33,9.48-6.33H314.55z"/>
			<path class="st0" d="M304.52,148.77c-0.9,0-3.02,0-3.02-2.43v-12.78c0-2.63,1.32-7.05,10.19-7.05h2.86
				c2.03,0,2.03,1.81,2.03,2.58c0,0.76,0,2.54-2.03,2.54h-2.86c-4.12,0-4.12,1.25-4.12,1.92v12.78
				C307.57,148.77,305.43,148.77,304.52,148.77z M311.69,127.94c-5.82,0-8.77,1.89-8.77,5.62v12.78c0,0.68,0.07,1.01,1.59,1.01
				c1.63,0,1.63-0.36,1.63-1.01v-12.78c0-3,3.17-3.35,5.55-3.35h2.86c0.45,0,0.6,0,0.6-1.12c0-1.15-0.18-1.15-0.6-1.15H311.69z"/>
		</g>
		<g>
			<path class="st0" d="M324.53,139.68v1.87c0,1.46,1.76,2.67,5.86,2.67h4.21c1.1,0,1.32,0.62,1.32,1.83c0,1.21-0.22,1.87-1.32,1.87
				h-4.36c-6.88,0-10.36-2.12-10.36-6.37v-7.94c0-4.28,3.48-6.37,10.36-6.37h8.46c7.32,0,10.36,2.09,10.36,6.37v4.21
				c0,1.43-0.33,1.87-2.2,1.87H324.53z M324.53,136.05h19.88v-2.45c0-1.68-1.76-2.67-5.86-2.67h-8.16c-4.1,0-5.86,1.17-5.86,2.67
				V136.05z"/>
			<path class="st0" d="M334.6,148.63h-4.35c-7.35,0-11.08-2.38-11.08-7.08v-7.94c0-4.7,3.73-7.08,11.08-7.08h8.46
				c4.75,0,11.07,0.73,11.07,7.08v4.21c0,1.9-0.76,2.58-2.91,2.58h-21.62v1.15c0,1.19,2.02,1.96,5.14,1.96h4.21
				c2.03,0,2.03,1.78,2.03,2.54C336.63,146.82,336.63,148.63,334.6,148.63z M330.24,127.94c-6.49,0-9.65,1.85-9.65,5.66v7.94
				c0,3.81,3.16,5.66,9.65,5.66h4.35c0.43,0,0.61,0,0.61-1.15c0-1.12-0.15-1.12-0.61-1.12h-4.21c-5.93,0-6.57-2.37-6.57-3.39v-2.58
				h23.04c1.48,0,1.48-0.13,1.48-1.15v-4.21c0-2.8-1.15-5.66-9.65-5.66H330.24z M345.12,136.76h-21.3v-3.17
				c0-1.02,0.64-3.38,6.57-3.38h8.16c4.36,0,6.57,1.14,6.57,3.38V136.76z M325.24,135.34h18.45v-1.74c0-1.62-2.8-1.96-5.14-1.96
				h-8.16c-3.17,0-5.14,0.75-5.14,1.96V135.34z"/>
		</g>
		<g>
			<path class="st0" d="M353.84,132.72c0-3.4,3-5.49,8.71-5.49h5.01c1.1,0,1.36,0.62,1.36,1.87c0,1.21-0.26,1.83-1.36,1.83h-5.05
				c-2.75,0-4.06,0.69-4.06,1.83v0.95c0,1.13,1.32,1.87,4.25,1.87h8.09c6.85,0,9.67,2.05,9.67,5.56v1.17c0,3.51-3,5.6-10.36,5.6
				h-14.83c-1.1,0-1.35-0.62-1.35-1.87c0-1.21,0.26-1.83,1.35-1.83h15.52c3.92,0,4.98-0.69,4.98-1.83v-1.32
				c0-1.14-1.06-1.87-4.83-1.87h-8.2c-5.89,0-8.9-2.05-8.9-5.42V132.72z"/>
			<path class="st0" d="M370.1,148.63h-14.83c-2.07,0-2.07-1.87-2.07-2.58c0-0.69,0-2.54,2.07-2.54h15.52
				c4.27,0,4.27-0.84,4.27-1.12v-1.32c0-0.77-1.39-1.15-4.12-1.15h-8.2c-6.11,0-9.61-2.23-9.61-6.13v-1.06
				c0-3.94,3.44-6.21,9.43-6.21h5.01c2.07,0,2.07,1.87,2.07,2.58c0,0.7,0,2.54-2.07,2.54h-5.05c-2.07,0-3.35,0.43-3.35,1.12v0.95
				c0,0.71,1.35,1.15,3.53,1.15h8.09c6.89,0,10.38,2.11,10.38,6.28v1.17C381.17,146.5,377.45,148.63,370.1,148.63z M355.27,144.93
				c-0.45,0-0.64,0-0.64,1.12c0,1.15,0.19,1.15,0.64,1.15h14.83c9.65,0,9.65-3.68,9.65-4.89v-1.17c0-1.2,0-4.85-8.95-4.85h-8.09
				c-4.1,0-4.96-1.4-4.96-2.58v-0.95c0-1.16,0.83-2.54,4.78-2.54h5.05c0.45,0,0.64,0,0.64-1.12c0-1.15-0.19-1.15-0.64-1.15h-5.01
				c-2.99,0-8,0.62-8,4.78v1.06c0,4.09,5.13,4.7,8.18,4.7h8.2c2.74,0,5.55,0.31,5.55,2.58v1.32c0,2.24-2.74,2.54-5.69,2.54H355.27z"
				/>
		</g>
		<g>
			<path class="st0" d="M389.97,139.68v1.87c0,1.46,1.76,2.67,5.86,2.67h4.21c1.1,0,1.32,0.62,1.32,1.83c0,1.21-0.22,1.87-1.32,1.87
				h-4.36c-6.88,0-10.36-2.12-10.36-6.37v-7.94c0-4.28,3.48-6.37,10.36-6.37h8.46c7.32,0,10.36,2.09,10.36,6.37v4.21
				c0,1.43-0.33,1.87-2.2,1.87H389.97z M389.97,136.05h19.88v-2.45c0-1.68-1.76-2.67-5.86-2.67h-8.16c-4.1,0-5.86,1.17-5.86,2.67
				V136.05z"/>
			<path class="st0" d="M400.03,148.63h-4.36c-7.35,0-11.07-2.38-11.07-7.08v-7.94c0-4.7,3.73-7.08,11.07-7.08h8.46
				c4.75,0,11.07,0.73,11.07,7.08v4.21c0,1.9-0.76,2.58-2.91,2.58h-21.62v1.15c0,1.19,2.02,1.96,5.14,1.96h4.21
				c2.03,0,2.03,1.78,2.03,2.54C402.06,146.82,402.06,148.63,400.03,148.63z M395.68,127.94c-6.49,0-9.65,1.85-9.65,5.66v7.94
				c0,3.81,3.16,5.66,9.65,5.66h4.36c0.43,0,0.6,0,0.6-1.15c0-1.12-0.15-1.12-0.6-1.12h-4.21c-5.93,0-6.57-2.37-6.57-3.39v-2.58
				h23.04c1.48,0,1.48-0.13,1.48-1.15v-4.21c0-2.8-1.15-5.66-9.65-5.66H395.68z M410.56,136.76h-21.3v-3.17
				c0-1.02,0.64-3.38,6.57-3.38h8.16c4.36,0,6.57,1.14,6.57,3.38V136.76z M390.68,135.34h18.45v-1.74c0-1.62-2.8-1.96-5.14-1.96
				h-8.16c-3.17,0-5.14,0.75-5.14,1.96V135.34z"/>
		</g>
		<g>
			<path class="st0" d="M431.94,127.23c1.1,0,1.32,0.66,1.32,1.87c0,1.21-0.22,1.83-1.32,1.83h-2.86c-3.62,0-4.83,0.95-4.83,2.63
				v12.78c0,1.39-0.77,1.72-2.34,1.72c-1.54,0-2.31-0.33-2.31-1.72v-12.78c0-4.21,3.37-6.33,9.48-6.33H431.94z"/>
			<path class="st0" d="M421.91,148.77c-0.9,0-3.02,0-3.02-2.43v-12.78c0-2.63,1.32-7.05,10.2-7.05h2.85c2.03,0,2.03,1.81,2.03,2.58
				c0,0.76,0,2.54-2.03,2.54h-2.85c-4.12,0-4.12,1.25-4.12,1.92v12.78C424.97,148.77,422.83,148.77,421.91,148.77z M429.09,127.94
				c-5.82,0-8.77,1.89-8.77,5.62v12.78c0,0.68,0.07,1.01,1.59,1.01c1.63,0,1.63-0.36,1.63-1.01v-12.78c0-3,3.17-3.35,5.55-3.35h2.85
				c0.45,0,0.6,0,0.6-1.12c0-1.15-0.18-1.15-0.6-1.15H429.09z"/>
		</g>
		<g>
			<path class="st0" d="M452.03,147.07l-14.39-17.83c-0.22-0.26-0.33-0.51-0.33-0.77c0-0.84,1.24-1.39,2.75-1.39
				c0.84,0,1.79,0.18,2.31,0.84l12.26,15.37l12.3-15.41c0.48-0.62,1.39-0.81,2.2-0.81c1.36,0,2.6,0.55,2.6,1.36
				c0,0.26-0.11,0.51-0.33,0.8l-14.24,17.83c-0.51,0.66-1.28,0.99-2.56,0.99C453.31,148.06,452.54,147.73,452.03,147.07z"/>
			<path class="st0" d="M454.59,148.77c-1.46,0-2.45-0.4-3.12-1.26l-14.38-17.82c-0.32-0.37-0.49-0.79-0.49-1.22
				c0-1.24,1.42-2.1,3.46-2.1c1.31,0,2.3,0.39,2.87,1.12l11.7,14.67l11.74-14.71c0.68-0.89,1.87-1.07,2.75-1.07
				c1.65,0,3.31,0.71,3.31,2.07c0,0.41-0.15,0.81-0.47,1.23l-14.25,17.84C457.05,148.37,456.05,148.77,454.59,148.77z M440.06,127.8
				c-1.34,0-2.03,0.47-2.03,0.68c0,0.08,0.06,0.19,0.16,0.31l14.41,17.85c0.27,0.35,0.73,0.71,2,0.71s1.73-0.36,2-0.71l14.25-17.84
				c0.07-0.1,0.17-0.25,0.17-0.36c0-0.19-0.73-0.64-1.89-0.64c-0.78,0-1.37,0.19-1.63,0.53l-12.86,16.12l-12.82-16.07
				C441.42,127.87,440.55,127.8,440.06,127.8z"/>
		</g>
		<g>
			<path class="st0" d="M480.61,147.91c-6.88,0-10.36-2.12-10.36-6.37v-1.94c0-4.28,3.48-6.37,10.36-6.37h15.67v-0.04
				c0-1.39-1.76-2.27-5.86-2.27h-3.44c-1.1,0-1.35-0.62-1.35-1.83c0-1.25,0.26-1.87,1.35-1.87h3.59c6.88,0,10.36,2.09,10.36,6.37
				v7.94c0,4.25-3.48,6.37-10.36,6.37H480.61z M496.28,141.54v-4.76h-15.52c-4.1,0-5.86,1.17-5.86,2.67v2.09
				c0,1.46,1.76,2.67,5.86,2.67h9.67C494.52,144.22,496.28,143.01,496.28,141.54z"/>
			<path class="st0" d="M490.57,148.63h-9.96c-7.35,0-11.07-2.38-11.07-7.08v-1.94c0-4.7,3.73-7.08,11.07-7.08h14.56
				c-0.72-0.57-2.38-0.88-4.75-0.88h-3.44c-2.07,0-2.07-1.85-2.07-2.54c0-0.71,0-2.58,2.07-2.58h3.59c7.35,0,11.07,2.38,11.07,7.08
				v7.94C501.64,146.24,497.92,148.63,490.57,148.63z M480.61,133.95c-6.49,0-9.65,1.85-9.65,5.66v1.94c0,3.81,3.16,5.66,9.65,5.66
				h9.96c6.49,0,9.65-1.85,9.65-5.66v-7.94c0-3.81-3.16-5.66-9.65-5.66h-3.59c-0.45,0-0.64,0-0.64,1.15c0,1.12,0.19,1.12,0.64,1.12
				h3.44c4.36,0,6.57,1,6.57,2.98v0.71l-0.71,0.04H480.61z M490.42,144.93h-9.67c-5.93,0-6.57-2.37-6.57-3.39v-2.09
				c0-1.02,0.64-3.39,6.57-3.39H497v5.47C497,142.56,496.35,144.93,490.42,144.93z M480.76,137.5c-3.17,0-5.14,0.75-5.14,1.96v2.09
				c0,1.19,2.02,1.96,5.14,1.96h9.67c3.12,0,5.14-0.77,5.14-1.96v-4.05H480.76z"/>
		</g>
		<g>
			<path class="st0" d="M507.98,127.23v-4.28c0-1.39,0.77-1.72,2.31-1.72c1.57,0,2.34,0.33,2.34,1.72v4.28h7.72
				c1.1,0,1.32,0.66,1.32,1.87c0,1.21-0.22,1.83-1.32,1.83h-7.72v15.41c0,1.39-0.77,1.72-2.34,1.72c-1.54,0-2.31-0.33-2.31-1.72
				v-15.41h-2.09c-1.1,0-1.32-0.62-1.32-1.83c0-1.21,0.22-1.87,1.32-1.87H507.98z"/>
			<path class="st0" d="M510.29,148.77c-0.9,0-3.02,0-3.02-2.43v-14.7h-1.37c-2.03,0-2.03-1.78-2.03-2.54c0-0.77,0-2.58,2.03-2.58
				h1.37v-3.57c0-2.43,2.12-2.43,3.02-2.43c0.91,0,3.06,0,3.06,2.43v3.57h7.01c2.03,0,2.03,1.81,2.03,2.58c0,0.76,0,2.54-2.03,2.54
				h-7.01v14.7C513.35,148.77,511.21,148.77,510.29,148.77z M505.9,127.94c-0.43,0-0.61,0-0.61,1.15c0,1.12,0.15,1.12,0.61,1.12h2.8
				v16.12c0,0.68,0.07,1.01,1.59,1.01c1.63,0,1.63-0.36,1.63-1.01v-16.12h8.44c0.45,0,0.61,0,0.61-1.12c0-1.15-0.18-1.15-0.61-1.15
				h-8.44v-5c0-0.65,0-1.01-1.63-1.01c-1.53,0-1.59,0.33-1.59,1.01v5H505.9z"/>
		</g>
		<g>
			<path class="st0" d="M528.58,121.22c2.05,0,2.89,0.7,2.89,2.27c0,1.57-0.84,2.27-2.89,2.27c-2.05,0-2.89-0.7-2.89-2.27
				C525.69,121.92,526.53,121.22,528.58,121.22z M530.93,146.34c0,1.39-0.77,1.72-2.34,1.72c-1.54,0-2.31-0.33-2.31-1.72v-17.28
				c0-1.39,0.77-1.72,2.31-1.72c1.57,0,2.34,0.33,2.34,1.72V146.34z"/>
			<path class="st0" d="M528.58,148.77c-0.9,0-3.02,0-3.02-2.43v-17.28c0-2.43,2.12-2.43,3.02-2.43c0.91,0,3.06,0,3.06,2.43v17.28
				C531.64,148.77,529.5,148.77,528.58,148.77z M528.58,128.05c-1.53,0-1.59,0.31-1.59,1.01v17.28c0,0.7,0.06,1.01,1.59,1.01
				c1.63,0,1.63-0.36,1.63-1.01v-17.28C530.21,128.41,530.21,128.05,528.58,128.05z M528.58,126.48c-0.89,0-3.61,0-3.61-2.98
				c0-2.98,2.72-2.98,3.61-2.98c0.89,0,3.6,0,3.6,2.98C532.19,126.48,529.48,126.48,528.58,126.48z M528.58,121.94
				c-2.02,0-2.18,0.7-2.18,1.56c0,0.85,0.16,1.56,2.18,1.56c2.01,0,2.18-0.7,2.18-1.56C530.76,122.64,530.6,121.94,528.58,121.94z"
				/>
		</g>
		<g>
			<path class="st0" d="M546.84,127.23h7.98c6.88,0,10.36,2.09,10.36,6.37v7.94c0,4.25-3.48,6.37-10.36,6.37h-7.98
				c-6.88,0-10.36-2.12-10.36-6.37v-7.94C536.48,129.32,539.96,127.23,546.84,127.23z M560.53,133.6c0-1.5-1.76-2.67-5.86-2.67
				h-7.69c-4.1,0-5.86,1.17-5.86,2.67v7.94c0,1.46,1.76,2.67,5.86,2.67h7.69c4.1,0,5.86-1.21,5.86-2.67V133.6z"/>
			<path class="st0" d="M554.82,148.63h-7.98c-7.35,0-11.07-2.38-11.07-7.08v-7.94c0-4.7,3.73-7.08,11.07-7.08h7.98
				c7.35,0,11.07,2.38,11.07,7.08v7.94C565.89,146.24,562.17,148.63,554.82,148.63z M546.84,127.94c-6.49,0-9.65,1.85-9.65,5.66
				v7.94c0,3.81,3.16,5.66,9.65,5.66h7.98c6.49,0,9.65-1.85,9.65-5.66v-7.94c0-3.81-3.16-5.66-9.65-5.66H546.84z M554.67,144.93
				h-7.69c-5.93,0-6.57-2.37-6.57-3.39v-7.94c0-1.02,0.64-3.38,6.57-3.38h7.69c5.93,0,6.57,2.37,6.57,3.38v7.94
				C561.24,142.56,560.6,144.93,554.67,144.93z M546.99,131.64c-3.18,0-5.15,0.75-5.15,1.96v7.94c0,1.19,2.02,1.96,5.15,1.96h7.69
				c3.12,0,5.14-0.77,5.14-1.96v-7.94c0-1.21-1.97-1.96-5.14-1.96H546.99z"/>
		</g>
		<g>
			<path class="st0" d="M570.58,146.34V133.6c0-4.28,3.48-6.37,10.36-6.37h7.98c6.88,0,10.36,2.09,10.36,6.37v12.74
				c0,1.39-0.77,1.72-2.34,1.72c-1.54,0-2.3-0.33-2.3-1.72V133.6c0-1.5-1.76-2.67-5.86-2.67h-7.69c-4.1,0-5.86,1.17-5.86,2.67v12.74
				c0,1.39-0.77,1.72-2.34,1.72C571.35,148.06,570.58,147.73,570.58,146.34z"/>
			<path class="st0" d="M596.94,148.77c-0.9,0-3.02,0-3.02-2.43V133.6c0-1.21-1.97-1.96-5.14-1.96h-7.69
				c-3.18,0-5.15,0.75-5.15,1.96v12.74c0,2.43-2.14,2.43-3.06,2.43c-0.9,0-3.02,0-3.02-2.43V133.6c0-4.7,3.73-7.08,11.07-7.08h7.98
				c7.35,0,11.07,2.38,11.07,7.08v12.74C600,148.77,597.86,148.77,596.94,148.77z M581.09,130.21h7.69c5.93,0,6.57,2.37,6.57,3.38
				v12.74c0,0.68,0.07,1.01,1.59,1.01c1.63,0,1.63-0.36,1.63-1.01V133.6c0-3.81-3.16-5.66-9.65-5.66h-7.98
				c-6.49,0-9.65,1.85-9.65,5.66v12.74c0,0.68,0.07,1.01,1.59,1.01c1.63,0,1.63-0.36,1.63-1.01V133.6
				C574.52,132.58,575.16,130.21,581.09,130.21z"/>
		</g>
	</g>
	<g>
		<g>
			<path class="st0" d="M235.74,173.89c-5.27,0-7.91-1.66-7.91-4.97v-1.04c0-3.34,2.65-4.97,7.91-4.97h2.67
				c0.86,0,1.04,0.48,1.04,1.44s-0.19,1.44-1.04,1.44h-2.75c-3.13,0-4.3,0.91-4.3,2.09v1.04c0,1.15,1.18,2.09,4.3,2.09h6.31
				c5.27,0,7.91,1.66,7.91,4.97v1.34c0,3.34-2.65,4.97-7.91,4.97h-13.1c-0.86,0-1.04-0.48-1.04-1.44s0.19-1.44,1.04-1.44h13.18
				c3.13,0,4.3-0.91,4.3-2.09v-1.34c0-1.15-1.18-2.09-4.3-2.09H235.74z"/>
			<path class="st0" d="M241.97,182.73h-13.1c-1.49,0-1.49-1.28-1.49-1.89s0-1.89,1.49-1.89h13.18c1.44,0,3.86-0.21,3.86-1.64v-1.34
				c0-1.04-1.41-1.64-3.86-1.64h-6.31c-5.55,0-8.36-1.82-8.36-5.42v-1.04c0-3.6,2.81-5.42,8.36-5.42h2.67
				c1.49,0,1.49,1.28,1.49,1.89s0,1.89-1.49,1.89h-2.75c-1.44,0-3.86,0.21-3.86,1.64v1.04c0,1.04,1.41,1.64,3.86,1.64h6.31
				c5.55,0,8.36,1.82,8.36,5.42v1.34C250.33,180.91,247.51,182.73,241.97,182.73z M228.87,179.84c-0.38,0-0.6,0-0.6,1
				c0,1,0.21,1,0.6,1h13.1c5.02,0,7.47-1.48,7.47-4.53v-1.34c0-3.05-2.44-4.53-7.47-4.53h-6.31c-4.13,0-4.75-1.59-4.75-2.53v-1.04
				c0-0.95,0.62-2.53,4.75-2.53h2.75c0.38,0,0.6,0,0.6-1c0-1-0.21-1-0.6-1h-2.67c-5.03,0-7.47,1.48-7.47,4.53v1.04
				c0,3.05,2.44,4.53,7.47,4.53h6.31c4.13,0,4.75,1.59,4.75,2.53v1.34c0,0.95-0.62,2.53-4.75,2.53H228.87z"/>
		</g>
		<g>
			<path class="st0" d="M260.99,167.18h5.83c5.03,0,7.57,1.52,7.57,4.65v5.8c0,3.1-2.54,4.65-7.57,4.65h-5.83
				c-5.03,0-7.57-1.55-7.57-4.65v-5.8C253.43,168.71,255.97,167.18,260.99,167.18z M270.99,171.83c0-1.1-1.28-1.95-4.28-1.95h-5.61
				c-2.99,0-4.28,0.85-4.28,1.95v5.8c0,1.07,1.28,1.95,4.28,1.95h5.61c2.99,0,4.28-0.88,4.28-1.95V171.83z"/>
			<path class="st0" d="M266.82,182.73h-5.83c-5.32,0-8.01-1.72-8.01-5.1v-5.8c0-3.38,2.7-5.1,8.01-5.1h5.83
				c5.32,0,8.01,1.72,8.01,5.1v5.8C274.84,181.02,272.14,182.73,266.82,182.73z M260.99,167.63c-4.79,0-7.12,1.38-7.12,4.21v5.8
				c0,2.83,2.33,4.21,7.12,4.21h5.83c4.79,0,7.12-1.38,7.12-4.21v-5.8c0-2.83-2.33-4.21-7.12-4.21H260.99z M266.72,180.03h-5.61
				c-4.26,0-4.72-1.68-4.72-2.4v-5.8c0-0.72,0.46-2.4,4.72-2.4h5.61c4.26,0,4.72,1.68,4.72,2.4v5.8
				C271.44,178.36,270.98,180.03,266.72,180.03z M261.1,170.33c-2.36,0-3.83,0.58-3.83,1.51v5.8c0,0.91,1.5,1.51,3.83,1.51h5.61
				c2.33,0,3.83-0.59,3.83-1.51v-5.8c0-0.93-1.47-1.51-3.83-1.51H261.1z"/>
		</g>
		<g>
			<path class="st0" d="M285.77,182.29c-5.03,0-7.57-1.55-7.57-4.65v-5.8c0-3.13,2.54-4.65,7.57-4.65h13.37
				c0.8,0,0.99,0.45,0.99,1.36c0,0.88-0.19,1.34-0.99,1.34h-13.26c-2.99,0-4.28,0.85-4.28,1.95v5.8c0,1.07,1.28,1.95,4.28,1.95
				h13.34c0.8,0,0.96,0.46,0.96,1.34c0,0.88-0.16,1.36-0.96,1.36H285.77z"/>
			<path class="st0" d="M299.22,182.73h-13.45c-5.32,0-8.01-1.72-8.01-5.1v-5.8c0-3.38,2.7-5.1,8.01-5.1h13.37
				c1.44,0,1.44,1.27,1.44,1.81c0,0.53,0,1.78-1.44,1.78h-13.26c-2.36,0-3.83,0.58-3.83,1.51v5.8c0,0.91,1.5,1.51,3.83,1.51h13.34
				c1.41,0,1.41,1.2,1.41,1.78C300.63,181.46,300.63,182.73,299.22,182.73z M285.77,167.63c-4.79,0-7.12,1.38-7.12,4.21v5.8
				c0,2.83,2.33,4.21,7.12,4.21h13.45c0.34,0,0.52,0,0.52-0.92c0-0.89-0.16-0.89-0.52-0.89h-13.34c-4.26,0-4.72-1.68-4.72-2.4v-5.8
				c0-0.72,0.46-2.4,4.72-2.4h13.26c0.35,0,0.54,0,0.54-0.89c0-0.92-0.19-0.92-0.54-0.92H285.77z"/>
		</g>
		<g>
			<path class="st0" d="M305.79,162.8c1.5,0,2.11,0.51,2.11,1.66c0,1.15-0.62,1.66-2.11,1.66c-1.5,0-2.11-0.51-2.11-1.66
				C303.68,163.3,304.29,162.8,305.79,162.8z M307.5,181.14c0,1.02-0.56,1.26-1.71,1.26c-1.12,0-1.68-0.24-1.68-1.26v-12.62
				c0-1.02,0.56-1.26,1.68-1.26c1.15,0,1.71,0.24,1.71,1.26V181.14z"/>
			<path class="st0" d="M305.79,182.84c-1.05,0-2.13-0.2-2.13-1.7v-12.62c0-1.5,1.08-1.7,2.13-1.7c0.7,0,2.16,0,2.16,1.7v12.62
				C307.95,182.84,306.49,182.84,305.79,182.84z M305.79,167.71c-1.13,0-1.24,0.24-1.24,0.81v12.62c0,0.58,0.11,0.81,1.24,0.81
				c1.15,0,1.27-0.23,1.27-0.81v-12.62C307.05,167.94,306.94,167.71,305.79,167.71z M305.79,166.56c-0.63,0-2.56,0-2.56-2.1
				c0-2.1,1.93-2.1,2.56-2.1c0.63,0,2.56,0,2.56,2.1C308.35,166.56,306.42,166.56,305.79,166.56z M305.79,163.24
				c-1.54,0-1.67,0.57-1.67,1.21s0.13,1.21,1.67,1.21c1.54,0,1.67-0.57,1.67-1.21S307.33,163.24,305.79,163.24z"/>
		</g>
		<g>
			<path class="st0" d="M314.95,176.27v1.36c0,1.07,1.28,1.95,4.28,1.95h3.07c0.8,0,0.96,0.46,0.96,1.34c0,0.88-0.16,1.36-0.96,1.36
				h-3.18c-5.03,0-7.57-1.55-7.57-4.65v-5.8c0-3.13,2.54-4.65,7.57-4.65h6.18c5.35,0,7.57,1.52,7.57,4.65v3.07
				c0,1.04-0.24,1.36-1.6,1.36H314.95z M314.95,173.62h14.52v-1.79c0-1.23-1.28-1.95-4.28-1.95h-5.96c-2.99,0-4.28,0.85-4.28,1.95
				V173.62z"/>
			<path class="st0" d="M322.3,182.73h-3.18c-5.32,0-8.01-1.72-8.01-5.1v-5.8c0-3.38,2.7-5.1,8.01-5.1h6.18
				c3.44,0,8.01,0.53,8.01,5.1v3.07c0,1.35-0.52,1.81-2.05,1.81H315.4v0.92c0,0.91,1.5,1.51,3.83,1.51h3.07
				c1.41,0,1.41,1.2,1.41,1.78C323.71,181.46,323.71,182.73,322.3,182.73z M319.12,167.63c-4.79,0-7.12,1.38-7.12,4.21v5.8
				c0,2.83,2.33,4.21,7.12,4.21h3.18c0.34,0,0.52,0,0.52-0.92c0-0.89-0.16-0.89-0.52-0.89h-3.07c-4.26,0-4.72-1.68-4.72-2.4v-1.81
				h16.75c1.16,0,1.16-0.16,1.16-0.92v-3.07c0-2.08-0.85-4.21-7.12-4.21H319.12z M329.91,174.07h-15.41v-2.24
				c0-0.72,0.46-2.4,4.72-2.4h5.96c3.13,0,4.72,0.81,4.72,2.4V174.07z M315.4,173.18h13.63v-1.35c0-1.24-2.08-1.51-3.83-1.51h-5.96
				c-2.36,0-3.83,0.58-3.83,1.51V173.18z"/>
		</g>
		<g>
			<path class="st0" d="M339.58,167.18v-3.13c0-1.02,0.56-1.26,1.68-1.26c1.15,0,1.71,0.24,1.71,1.26v3.13h5.64
				c0.8,0,0.96,0.48,0.96,1.36c0,0.88-0.16,1.34-0.96,1.34h-5.64v11.26c0,1.02-0.56,1.26-1.71,1.26c-1.12,0-1.68-0.24-1.68-1.26
				v-11.26h-1.52c-0.8,0-0.96-0.46-0.96-1.34c0-0.88,0.16-1.36,0.96-1.36H339.58z"/>
			<path class="st0" d="M341.27,182.84c-1.05,0-2.13-0.2-2.13-1.7v-10.81h-1.08c-1.41,0-1.41-1.2-1.41-1.78c0-0.54,0-1.81,1.41-1.81
				h1.08v-2.68c0-1.5,1.08-1.7,2.13-1.7c0.7,0,2.16,0,2.16,1.7v2.68h5.2c1.41,0,1.41,1.27,1.41,1.81c0,0.58,0,1.78-1.41,1.78h-5.2
				v10.81C343.43,182.84,341.97,182.84,341.27,182.84z M338.06,167.63c-0.34,0-0.52,0-0.52,0.92c0,0.89,0.16,0.89,0.52,0.89h1.97
				v11.7c0,0.58,0.11,0.81,1.24,0.81c1.15,0,1.27-0.23,1.27-0.81v-11.7h6.09c0.36,0,0.52,0,0.52-0.89c0-0.92-0.17-0.92-0.52-0.92
				h-6.09v-3.57c0-0.58-0.11-0.81-1.27-0.81c-1.13,0-1.24,0.24-1.24,0.81v3.57H338.06z"/>
		</g>
		<g>
			<path class="st0" d="M368.78,179.21v-10.88c0-1.02,0.56-1.26,1.68-1.26c1.15,0,1.71,0.24,1.71,1.26v13.72
				c0,3.07-2.46,4.63-6.92,4.63h-3.69c-0.8,0-0.96-0.48-0.96-1.36c0-0.88,0.16-1.34,0.96-1.34h3.69c2.65,0,3.53-0.69,3.53-1.92
				v-0.13h-10.16c-5.03,0-7.57-1.52-7.57-4.65v-8.93c0-1.02,0.56-1.26,1.68-1.26c1.15,0,1.71,0.24,1.71,1.26v8.96
				c0,1.1,1.28,1.92,4.28,1.92H368.78z"/>
			<path class="st0" d="M365.25,187.12h-3.69c-1.41,0-1.41-1.27-1.41-1.81c0-0.58,0-1.78,1.41-1.78h3.69c2.51,0,2.98-0.66,3.06-1.17
				h-9.69c-5.32,0-8.01-1.72-8.01-5.1v-8.93c0-1.5,1.08-1.7,2.13-1.7c0.7,0,2.16,0,2.16,1.7v8.96c0,0.93,1.43,1.48,3.83,1.48h9.61
				v-10.44c0-1.5,1.08-1.7,2.13-1.7c0.7,0,2.16,0,2.16,1.7v13.72C372.62,184.36,371.34,187.12,365.25,187.12z M361.56,184.42
				c-0.36,0-0.52,0-0.52,0.89c0,0.92,0.18,0.92,0.52,0.92h3.69c4.3,0,6.48-1.41,6.48-4.18v-13.72c0-0.58-0.11-0.81-1.27-0.81
				c-1.13,0-1.24,0.24-1.24,0.81v11.33h-10.5c-4.11,0-4.72-1.48-4.72-2.37v-8.96c0-0.58-0.11-0.81-1.27-0.81
				c-1.13,0-1.24,0.24-1.24,0.81v8.93c0,2.83,2.33,4.21,7.12,4.21h10.61v0.58c0,2.12-2.27,2.37-3.97,2.37H361.56z"/>
		</g>
	</g>
	<g>
		<path class="st1" d="M432.52,28.35l9.23-9.27l1.28,1.65c5.93,7.62,9.71,16.74,10.92,26.37l0.26,2.05h-13.08l-0.22-1.54
			c-1.03-6.59-3.52-12.64-7.47-17.98L432.52,28.35z"/>
		<g>
			<path class="st2" d="M441.13,58.57h13.08l-0.26,2.05c-1.21,9.63-4.98,18.75-10.92,26.37l-1.28,1.61l-9.23-9.27l0.92-1.25
				c3.96-5.35,6.45-11.39,7.47-17.98L441.13,58.57z"/>
			<path class="st3" d="M374.87,21.72l-9.27-9.27l1.65-1.25c7.62-6.01,16.74-9.78,26.34-10.95L395.64,0v13.11l-1.54,0.22
				c-6.56,1.03-12.6,3.52-17.95,7.44L374.87,21.72z"/>
			<path class="st4" d="M406.63,13.33l-1.58-0.22V0l2.05,0.26c9.6,1.17,18.72,4.94,26.37,10.95l1.65,1.25l-9.3,9.27l-1.25-0.95
				C419.3,16.89,413.11,14.32,406.63,13.33z"/>
		</g>
	</g>
</g>
</svg>
