<svg xmlns="http://www.w3.org/2000/svg" viewBox="0 0 600 400"><defs><style>.cls-1{fill:#fff;}.cls-2{fill:#0f172a;}.cls-3{fill:#f9a900;}.cls-4{fill:#e91d26;}.cls-5{fill:#00ab4d;}.cls-6{fill:#fbe600;}
</style></defs><title>Asset 2</title>
<g id="Layer_2" data-name="Layer 2"><g id="Layer_1-2" data-name="Layer 1">
<path class="cls-2" d="M244.74,171.79c-.8,0-1.2-.34-1.2-1a2.21,2.21,0,0,1,.3-1l1.2-2a2.18,2.18,0,0,0,.3-1c0-.68-.39-1-1.16-1a3.32,3.32,0,0,0-1.79.6,4.52,4.52,0,0,0-1.46,1.46l-8.3,14.39a2.2,2.2,0,0,0-.31,1c0,.69.39,1,1.16,1a3.47,3.47,0,0,0,1.82-.6,4,4,0,0,0,1.43-1.46l3.56-6.16a4.43,4.43,0,0,1,1.46-1.46,3.32,3.32,0,0,1,1.79-.6h10.28c.79,0,1.19.35,1.19,1a2,2,0,0,1-.34,1l-4.75,8.22a3.89,3.89,0,0,1-1.43,1.45,3.46,3.46,0,0,1-1.78.6H217.94q-1.2,0-1.2-1a2.18,2.18,0,0,1,.3-1l10.7-18.5a4,4,0,0,1,1.44-1.45,3.47,3.47,0,0,1,1.82-.6h28.77c.77,0,1.15.34,1.15,1a2.17,2.17,0,0,1-.3,1l-2.4,4.11a4,4,0,0,1-1.43,1.46,3.4,3.4,0,0,1-1.78.6Z"/>
<path class="cls-2" d="M279.46,171.79c-.77,0-1.16-.34-1.16-1a2.21,2.21,0,0,1,.3-1l1.2-2a2.18,2.18,0,0,0,.3-1c0-.68-.4-1-1.2-1a3.46,3.46,0,0,0-1.78.6,4,4,0,0,0-1.43,1.46l-2.4,4.11a2.18,2.18,0,0,0-.3,1q0,1,1.2,1h14.39c.77,0,1.15.35,1.15,1a2.18,2.18,0,0,1-.3,1l-4.75,8.22a3.89,3.89,0,0,1-1.43,1.45,3.47,3.47,0,0,1-1.82.6H252.66c-.77,0-1.16-.34-1.16-1a2.18,2.18,0,0,1,.3-1l2.36-4.11a4.39,4.39,0,0,1,1.45-1.46,3.38,3.38,0,0,1,1.8-.6h10.28c.79,0,1.19.35,1.19,1a2,2,0,0,1-.34,1l-1.15,2.05a2,2,0,0,0-.35,1c0,.69.4,1,1.2,1a3.32,3.32,0,0,0,1.78-.6,4.51,4.51,0,0,0,1.45-1.47l2.36-4.11a1.91,1.91,0,0,0,.36-1q0-1-1.2-1H258.61c-.8,0-1.2-.34-1.2-1a2,2,0,0,1,.34-1l4.71-8.22a4.5,4.5,0,0,1,1.46-1.45,3.38,3.38,0,0,1,1.8-.6h28.77c.8,0,1.2.34,1.2,1a2,2,0,0,1-.35,1L293,169.73a4,4,0,0,1-1.44,1.46,3.47,3.47,0,0,1-1.82.6Z"/>
<path class="cls-2" d="M331.65,163.57c.8,0,1.2.34,1.2,1a2.17,2.17,0,0,1-.3,1l-10.71,18.5a3.89,3.89,0,0,1-1.43,1.45,3.47,3.47,0,0,1-1.82.6H304.21a3.4,3.4,0,0,0-1.78.6,4,4,0,0,0-1.43,1.46L294.19,200c-.43.75-.89,1.12-1.37,1.12a.78.78,0,0,1-.65-.43l-5.65-9.63a2.23,2.23,0,0,1-.3-1.2,3.69,3.69,0,0,1,.52-1.93l12.93-22.35a4,4,0,0,1,1.41-1.45,3.38,3.38,0,0,1,1.8-.6ZM317,167.68a2.24,2.24,0,0,0,.3-1c0-.68-.38-1-1.15-1a3.47,3.47,0,0,0-1.82.6,4,4,0,0,0-1.44,1.46l-8.3,14.39a2,2,0,0,0-.34,1c0,.69.39,1,1.19,1a3.38,3.38,0,0,0,1.8-.6,4.33,4.33,0,0,0,1.46-1.46Z"/>
<path class="cls-2" d="M351.38,171.79c-.77,0-1.15-.34-1.15-1a2.21,2.21,0,0,1,.3-1l1.2-2a2.18,2.18,0,0,0,.3-1c0-.68-.4-1-1.2-1a3.4,3.4,0,0,0-1.78.6,4.1,4.1,0,0,0-1.44,1.46l-2.39,4.11a2.18,2.18,0,0,0-.3,1q0,1,1.2,1H360.5c.77,0,1.16.35,1.16,1a2.18,2.18,0,0,1-.3,1l-4.75,8.22a3.92,3.92,0,0,1-1.44,1.45,3.47,3.47,0,0,1-1.82.6H324.58c-.77,0-1.15-.34-1.15-1a2.18,2.18,0,0,1,.3-1l2.35-4.11a4.43,4.43,0,0,1,1.46-1.46,3.35,3.35,0,0,1,1.8-.6h10.27c.8,0,1.2.35,1.2,1a2.05,2.05,0,0,1-.34,1l-1.16,2.05a2,2,0,0,0-.34,1c0,.69.4,1,1.19,1a3.35,3.35,0,0,0,1.79-.6,4.61,4.61,0,0,0,1.45-1.47l2.36-4.11a1.91,1.91,0,0,0,.36-1q0-1-1.2-1H330.53c-.8,0-1.19-.34-1.19-1a2,2,0,0,1,.34-1l4.71-8.22a4.37,4.37,0,0,1,1.45-1.45,3.38,3.38,0,0,1,1.8-.6h28.77c.8,0,1.2.34,1.2,1a2,2,0,0,1-.34,1l-2.36,4.11a4,4,0,0,1-1.43,1.46,3.47,3.47,0,0,1-1.82.6Z"/>
<path class="cls-2" d="M143.49,223.39c-3.91,0-5.88-1.23-5.88-3.69v-7c0-2.49,2-3.7,5.88-3.7h9.73c.64,0,.78.36.78,1.07s-.14,1.08-.78,1.08h-9.65c-2.33,0-3.34.67-3.34,1.55v7c0,.85,1,1.55,3.34,1.55h9.67c.64,0,.76.35.76,1.07s-.12,1.07-.76,1.07Z"/>
<path class="cls-2" d="M153.24,223.78h-9.75c-4.16,0-6.27-1.37-6.27-4.08v-7c0-2.71,2.11-4.09,6.27-4.09h9.73c1.16,0,1.16,1,1.16,1.46s0,1.46-1.16,1.46h-9.65c-1.82,0-2.95.45-2.95,1.17v7c0,.7,1.16,1.16,2.95,1.16h9.67c1.14,0,1.14,1,1.14,1.46S154.38,223.78,153.24,223.78Zm-9.75-14.4c-3.7,0-5.49,1.08-5.49,3.31v7c0,2.22,1.79,3.31,5.49,3.31h9.75c.26,0,.37,0,.37-.69s-.09-.69-.37-.69h-9.67c-3.46,0-3.73-1.48-3.73-1.93v-7c0-.59.37-1.94,3.73-1.94h9.65c.28,0,.39,0,.39-.69s-.11-.68-.39-.68Z"/>
<path class="cls-2" d="M161.84,223.39c-3.74,0-5.62-1.15-5.62-3.45v-1.06c0-2.32,1.88-3.45,5.62-3.45h8.5v0c0-.76-1-1.23-3.18-1.23h-1.87c-.59,0-.73-.34-.73-1s.14-1,.73-1h2c3.73,0,5.62,1.13,5.62,3.46v4.31c0,2.3-1.89,3.45-5.62,3.45Zm8.5-3.45v-2.59h-8.42c-2.23,0-3.18.64-3.18,1.45v1.14c0,.79.95,1.45,3.18,1.45h5.24C169.39,221.39,170.34,220.73,170.34,219.94Z"/><path class="cls-2" d="M167.24,223.78h-5.4c-4,0-6-1.29-6-3.84v-1.06c0-2.55,2-3.84,6-3.84h7.9a4.74,4.74,0,0,0-2.58-.48h-1.87c-1.12,0-1.12-1-1.12-1.38s0-1.4,1.12-1.4h2c4,0,6,1.3,6,3.85v4.31C173.25,222.49,171.23,223.78,167.24,223.78Zm-5.4-8c-3.52,0-5.24,1-5.24,3.07v1.06c0,2.06,1.72,3.07,5.24,3.07h5.4c3.52,0,5.23-1,5.23-3.07v-4.31c0-2.07-1.71-3.07-5.23-3.07h-2c-.24,0-.34,0-.34.62s.1.61.34.61h1.87c2.37,0,3.57.54,3.57,1.62v.38l-.39,0Zm5.32,6h-5.24c-3.22,0-3.57-1.28-3.57-1.83V218.8c0-.55.35-1.83,3.57-1.83h8.81v3C170.73,220.49,170.38,221.77,167.16,221.77Zm-5.24-4c-1.73,0-2.79.41-2.79,1.06v1.14c0,.64,1.09,1.06,2.79,1.06h5.24c1.7,0,2.79-.42,2.79-1.06v-2.2Z"/><path class="cls-2" d="M182.49,212.17c.6,0,.71.36.71,1s-.11,1-.71,1h-1.55c-2,0-2.62.51-2.62,1.43v6.93c0,.75-.42.93-1.27.93s-1.25-.18-1.25-.93v-6.93c0-2.29,1.82-3.44,5.14-3.44Z"/><path class="cls-2" d="M177.05,223.86c-.49,0-1.64,0-1.64-1.32v-6.93c0-1.43.72-3.83,5.53-3.83h1.55c1.1,0,1.1,1,1.1,1.4s0,1.38-1.1,1.38h-1.55c-2.24,0-2.24.68-2.24,1.05v6.93C178.7,223.86,177.54,223.86,177.05,223.86Zm3.89-11.3c-3.16,0-4.76,1-4.76,3.05v6.93c0,.37,0,.55.87.55s.88-.2.88-.55v-6.93c0-1.63,1.72-1.82,3-1.82h1.55c.25,0,.33,0,.33-.61s-.1-.62-.33-.62Z"/><path class="cls-2" d="M198.45,217.16c-3.91,0-5.88-1.24-5.88-3.7v-.77c0-2.49,2-3.7,5.88-3.7h2c.64,0,.77.36.77,1.07s-.13,1.08-.77,1.08h-2.05c-2.32,0-3.19.67-3.19,1.55v.77c0,.86.87,1.55,3.19,1.55h4.69c3.91,0,5.88,1.23,5.88,3.69v1c0,2.48-2,3.69-5.88,3.69h-9.73c-.64,0-.78-.35-.78-1.07s.14-1.07.78-1.07h9.79c2.33,0,3.2-.68,3.2-1.55v-1c0-.85-.87-1.54-3.2-1.54Z"/><path class="cls-2" d="M203.08,223.78h-9.73c-1.16,0-1.16-1-1.16-1.46s0-1.46,1.16-1.46h9.79c1.79,0,2.81-.42,2.81-1.16v-1c0-.74-1-1.17-2.81-1.17h-4.69c-4.15,0-6.26-1.37-6.26-4.08v-.77c0-2.71,2.11-4.09,6.26-4.09h2c1.16,0,1.16,1,1.16,1.46s0,1.46-1.16,1.46h-2.05c-1.78,0-2.81.43-2.81,1.17v.77c0,.74,1,1.16,2.81,1.16h4.69c4.16,0,6.27,1.38,6.27,4.09v1C209.35,222.41,207.24,223.78,203.08,223.78Zm-9.73-2.15c-.28,0-.39,0-.39.69s.11.69.39.69h9.73c3.7,0,5.49-1.09,5.49-3.31v-1c0-2.23-1.79-3.31-5.49-3.31h-4.69c-3.12,0-3.58-1.22-3.58-1.94v-.77c0-.73.46-1.94,3.58-1.94h2.05c.27,0,.39,0,.39-.69s-.12-.68-.39-.68h-2c-3.69,0-5.49,1.08-5.49,3.31v.77c0,2.23,1.8,3.31,5.49,3.31h4.69c3.12,0,3.59,1.21,3.59,1.94v1c0,.72-.47,1.93-3.59,1.93Z"/><path class="cls-2" d="M211.78,222.54V209.85c0-.76.41-.94,1.25-.94s1.27.18,1.27.94v2.32h7.63c3.73,0,5.62,1.13,5.62,3.46v6.91c0,.75-.42.93-1.27.93s-1.25-.18-1.25-.93v-6.91c0-.82-1-1.45-3.18-1.45H214.3v8.36c0,.75-.42.93-1.27.93S211.78,223.29,211.78,222.54Z"/><path class="cls-2" d="M226.28,223.86c-.49,0-1.64,0-1.64-1.32v-6.91c0-.66-1.07-1.07-2.79-1.07h-7.16v8c0,1.32-1.17,1.32-1.66,1.32s-1.64,0-1.64-1.32V209.85c0-1.32,1.15-1.32,1.64-1.32s1.66,0,1.66,1.32v1.93h7.24c4,0,6,1.3,6,3.85v6.91C227.93,223.86,226.77,223.86,226.28,223.86Zm-12.37-10.07h7.94c3.21,0,3.56,1.28,3.56,1.84v6.91c0,.37,0,.55.87.55s.88-.2.88-.55v-6.91c0-2.07-1.71-3.07-5.23-3.07h-8v-2.71c0-.36,0-.55-.88-.55s-.87.18-.87.55v12.69c0,.37,0,.55.87.55s.88-.2.88-.55Z"/><path class="cls-2" d="M236.1,212.17h4.33c3.74,0,5.63,1.13,5.63,3.46v4.31c0,2.3-1.89,3.45-5.63,3.45H236.1c-3.73,0-5.62-1.15-5.62-3.45v-4.31C230.48,213.3,232.37,212.17,236.1,212.17Zm7.43,3.46c0-.82-.95-1.45-3.18-1.45h-4.17c-2.22,0-3.18.63-3.18,1.45v4.31c0,.79,1,1.45,3.18,1.45h4.17c2.23,0,3.18-.66,3.18-1.45Z"/><path class="cls-2" d="M240.43,223.78H236.1c-4,0-6-1.29-6-3.84v-4.31c0-2.55,2-3.85,6-3.85h4.33c4,0,6,1.3,6,3.85v4.31C246.44,222.49,244.42,223.78,240.43,223.78Zm-4.33-11.22c-3.52,0-5.23,1-5.23,3.07v4.31c0,2.06,1.71,3.07,5.23,3.07h4.33c3.53,0,5.24-1,5.24-3.07v-4.31c0-2.07-1.71-3.07-5.24-3.07Zm4.25,9.21h-4.17c-3.21,0-3.56-1.28-3.56-1.83v-4.31c0-.56.35-1.84,3.56-1.84h4.17c3.22,0,3.57,1.28,3.57,1.84v4.31C243.92,220.49,243.57,221.77,240.35,221.77Zm-4.17-7.21c-1.72,0-2.79.41-2.79,1.07v4.31c0,.64,1.1,1.06,2.79,1.06h4.17c1.7,0,2.8-.42,2.8-1.06v-4.31c0-.66-1.07-1.07-2.8-1.07Z"/><path class="cls-2" d="M255.5,222.8a1.45,1.45,0,0,1-1.43.67,1.52,1.52,0,0,1-1.49-.71L248,213.18a.76.76,0,0,1-.12-.37c0-.44.55-.72,1.37-.72.57,0,.93.14,1.07.46l3.71,8.34,4.18-8a1.21,1.21,0,0,1,1.29-.78,1.1,1.1,0,0,1,1.23.78l4,8,3.79-8.34c.14-.32.52-.46,1.1-.46.81,0,1.37.28,1.37.72a.76.76,0,0,1-.12.37l-4.69,9.58a1.5,1.5,0,0,1-1.47.71,1.52,1.52,0,0,1-1.45-.67l-3.81-7.75Z"/><path class="cls-2" d="M264.74,223.86a1.88,1.88,0,0,1-1.8-.89l-3.47-7.06L255.85,223a2.26,2.26,0,0,1-3.62-.06l-4.56-9.57a1,1,0,0,1-.16-.54c0-.67.69-1.11,1.76-1.11.28,0,1.12,0,1.42.69l3.39,7.61,3.8-7.31a1.6,1.6,0,0,1,1.64-1,1.47,1.47,0,0,1,1.57,1l3.65,7.3,3.46-7.6c.2-.45.69-.69,1.45-.69,1.06,0,1.75.44,1.75,1.11a1.12,1.12,0,0,1-.17.57l-4.67,9.55A1.83,1.83,0,0,1,264.74,223.86Zm-5.26-9.67,4.16,8.44c.2.4.77.46,1.1.46.59,0,1-.17,1.12-.5l4.69-9.58a.44.44,0,0,0,.08-.2c0-.14-.35-.33-1-.33-.24,0-.66,0-.74.22l-4.13,9.09L260.4,213c-.24-.47-.29-.56-.88-.56a.84.84,0,0,0-.95.57L254,221.78l-4-9.08c-.07-.15-.31-.22-.72-.22-.64,0-1,.19-1,.33a.53.53,0,0,0,.07.18l4.58,9.6c.16.33.54.5,1.14.5.76,0,1-.27,1.09-.47Z"/><path class="cls-2" d="M281.34,209H292.6c3.6,0,5.84,1.27,5.84,3.22v2.88c0,1.95-2.24,3.22-5.84,3.22h-9.55v4.23c0,.75-.46.93-1.33.93s-1.31-.18-1.31-.93V209.91A.81.81,0,0,1,281.34,209Zm1.71,2.15v5h9.32c2.7,0,3.45-.55,3.45-1.27v-2.48c0-.72-.75-1.27-3.45-1.27Z"/><path class="cls-2" d="M281.72,223.86c-.51,0-1.7,0-1.7-1.32V209.91a1.19,1.19,0,0,1,1.32-1.31H292.6c3.79,0,6.23,1.42,6.23,3.61v2.88c0,2.19-2.44,3.6-6.23,3.6h-9.16v3.85C283.44,223.86,282.23,223.86,281.72,223.86Zm-.38-14.48c-.42,0-.55.12-.55.53v12.63c0,.32,0,.55.93.55s.94-.22.94-.55v-4.62h9.94c3.32,0,5.46-1.11,5.46-2.83v-2.88c0-1.72-2.14-2.83-5.46-2.83Zm11,7.17h-9.71v-5.8h9.71c1.65,0,3.84.17,3.84,1.66v2.48C296.21,216.38,294,216.55,292.37,216.55Zm-8.93-.77h8.93c1.14,0,3.07-.12,3.07-.89v-2.48c0-.77-1.93-.89-3.07-.89h-8.93Z"/><path class="cls-2" d="M307.89,212.17c.6,0,.72.36.72,1s-.12,1-.72,1h-1.55c-2,0-2.62.51-2.62,1.43v6.93c0,.75-.42.93-1.27.93s-1.25-.18-1.25-.93v-6.93c0-2.29,1.83-3.44,5.14-3.44Z"/><path class="cls-2" d="M302.45,223.86c-.49,0-1.64,0-1.64-1.32v-6.93c0-1.43.72-3.83,5.53-3.83h1.55c1.1,0,1.1,1,1.1,1.4s0,1.38-1.1,1.38h-1.55c-2.23,0-2.23.68-2.23,1.05v6.93C304.11,223.86,303,223.86,302.45,223.86Zm3.89-11.3c-3.15,0-4.75,1-4.75,3.05v6.93c0,.37,0,.55.86.55s.88-.2.88-.55v-6.93c0-1.63,1.72-1.82,3-1.82h1.55c.25,0,.33,0,.33-.61s-.09-.62-.33-.62Z"/><path class="cls-2" d="M313.31,218.92v1c0,.79.95,1.45,3.18,1.45h2.28c.6,0,.72.33.72,1s-.12,1-.72,1h-2.36c-3.74,0-5.62-1.15-5.62-3.45v-4.31c0-2.33,1.88-3.46,5.62-3.46H321c4,0,5.62,1.13,5.62,3.46v2.28c0,.78-.18,1-1.19,1Zm0-2H324.1v-1.33c0-.92-1-1.45-3.18-1.45h-4.43c-2.23,0-3.18.63-3.18,1.45Z"/><path class="cls-2" d="M318.77,223.78h-2.36c-4,0-6-1.29-6-3.84v-4.31c0-2.55,2-3.85,6-3.85H321c2.58,0,6,.4,6,3.85v2.28c0,1-.41,1.4-1.57,1.4H313.7v.63c0,.64,1.09,1.06,2.79,1.06h2.28c1.1,0,1.1,1,1.1,1.38S319.87,223.78,318.77,223.78Zm-2.36-11.22c-3.52,0-5.24,1-5.24,3.07v4.31c0,2.06,1.72,3.07,5.24,3.07h2.36c.23,0,.33,0,.33-.63s-.08-.61-.33-.61h-2.28c-3.22,0-3.57-1.28-3.57-1.83v-1.4h12.51c.8,0,.8-.07.8-.63v-2.28c0-1.52-.62-3.07-5.23-3.07Zm8.07,4.78H312.92v-1.71c0-.56.35-1.84,3.57-1.84h4.43c2.36,0,3.56.62,3.56,1.84Zm-10.78-.77h10v-.94c0-.88-1.52-1.07-2.79-1.07h-4.43c-1.72,0-2.79.41-2.79,1.07Z"/><path class="cls-2" d="M329.21,215.15c0-1.85,1.63-3,4.73-3h2.72c.6,0,.74.34.74,1s-.14,1-.74,1h-2.74c-1.49,0-2.2.37-2.2,1v.52c0,.61.71,1,2.3,1h4.39c3.72,0,5.25,1.11,5.25,3v.63c0,1.91-1.63,3-5.63,3h-8c-.6,0-.74-.33-.74-1s.14-1,.74-1h8.42c2.13,0,2.7-.38,2.7-1v-.71c0-.62-.57-1-2.62-1H334c-3.2,0-4.83-1.12-4.83-2.94Z"/><path class="cls-2" d="M338,223.78h-8c-1.12,0-1.12-1-1.12-1.4s0-1.38,1.12-1.38h8.42c2.32,0,2.32-.46,2.32-.61v-.71c0-.42-.76-.63-2.24-.63H334c-3.31,0-5.21-1.21-5.21-3.32v-.58c0-2.14,1.86-3.37,5.11-3.37h2.72c1.13,0,1.13,1,1.13,1.4s0,1.38-1.13,1.38h-2.74c-1.12,0-1.82.24-1.82.61v.52c0,.38.74.62,1.92.62h4.39c3.74,0,5.63,1.15,5.63,3.41v.63C344,222.63,342,223.78,338,223.78Zm-8-2c-.25,0-.35,0-.35.61s.1.63.35.63h8c5.24,0,5.24-2,5.24-2.66v-.63c0-.65,0-2.63-4.86-2.63H334c-2.22,0-2.69-.77-2.69-1.4v-.52c0-.63.45-1.38,2.59-1.38h2.74c.25,0,.35,0,.35-.61s-.1-.62-.35-.62h-2.72c-1.62,0-4.34.33-4.34,2.59v.58c0,2.22,2.78,2.55,4.44,2.55h4.45c1.49,0,3,.16,3,1.4v.71c0,1.22-1.48,1.38-3.09,1.38Z"/><path class="cls-2" d="M348.81,218.92v1c0,.79,1,1.45,3.18,1.45h2.29c.59,0,.71.33.71,1s-.12,1-.71,1h-2.37c-3.73,0-5.62-1.15-5.62-3.45v-4.31c0-2.33,1.89-3.46,5.62-3.46h4.59c4,0,5.62,1.13,5.62,3.46v2.28c0,.78-.18,1-1.19,1Zm0-2H359.6v-1.33c0-.92-1-1.45-3.18-1.45H352c-2.22,0-3.18.63-3.18,1.45Z"/><path class="cls-2" d="M354.28,223.78h-2.37c-4,0-6-1.29-6-3.84v-4.31c0-2.55,2-3.85,6-3.85h4.59c2.58,0,6,.4,6,3.85v2.28c0,1-.41,1.4-1.58,1.4H349.2v.63c0,.64,1.1,1.06,2.79,1.06h2.29c1.1,0,1.1,1,1.1,1.38S355.38,223.78,354.28,223.78Zm-2.37-11.22c-3.52,0-5.23,1-5.23,3.07v4.31c0,2.06,1.71,3.07,5.23,3.07h2.37c.23,0,.33,0,.33-.63s-.09-.61-.33-.61H352c-3.21,0-3.56-1.28-3.56-1.83v-1.4h12.5c.81,0,.81-.07.81-.63v-2.28c0-1.52-.63-3.07-5.24-3.07Zm8.08,4.78H348.43v-1.71c0-.56.35-1.84,3.56-1.84h4.43c2.37,0,3.57.62,3.57,1.84Zm-10.79-.77h10v-.94c0-.88-1.51-1.07-2.79-1.07H352c-1.72,0-2.79.41-2.79,1.07Z"/><path class="cls-2" d="M371.59,212.17c.6,0,.72.36.72,1s-.12,1-.72,1H370c-2,0-2.62.51-2.62,1.43v6.93c0,.75-.42.93-1.27.93s-1.25-.18-1.25-.93v-6.93c0-2.29,1.83-3.44,5.14-3.44Z"/><path class="cls-2" d="M366.15,223.86c-.49,0-1.64,0-1.64-1.32v-6.93c0-1.43.72-3.83,5.53-3.83h1.55c1.1,0,1.1,1,1.1,1.4s0,1.38-1.1,1.38H370c-2.23,0-2.23.68-2.23,1.05v6.93C367.81,223.86,366.65,223.86,366.15,223.86Zm3.89-11.3c-3.15,0-4.76,1-4.76,3.05v6.93c0,.37,0,.55.87.55s.88-.2.88-.55v-6.93c0-1.63,1.72-1.82,3-1.82h1.55c.25,0,.33,0,.33-.61s-.1-.62-.33-.62Z"/><path class="cls-2" d="M382.49,222.94l-7.81-9.68a.69.69,0,0,1-.17-.42c0-.45.67-.75,1.49-.75a1.57,1.57,0,0,1,1.25.46l6.65,8.34,6.68-8.36a1.46,1.46,0,0,1,1.19-.44c.73,0,1.41.3,1.41.74a.74.74,0,0,1-.18.43l-7.73,9.68a2.09,2.09,0,0,1-2.78,0Z"/><path class="cls-2" d="M383.88,223.86a2,2,0,0,1-1.69-.68l-7.81-9.67a1,1,0,0,1-.26-.66c0-.68.77-1.15,1.88-1.15a1.86,1.86,0,0,1,1.55.61l6.35,8,6.37-8a1.87,1.87,0,0,1,1.5-.59c.89,0,1.79.39,1.79,1.13a1.12,1.12,0,0,1-.25.67l-7.74,9.68A2,2,0,0,1,383.88,223.86ZM376,212.48c-.73,0-1.11.26-1.11.37a.26.26,0,0,0,.09.16l7.82,9.69c.14.19.39.39,1.08.39s.94-.2,1.09-.39L392.7,213a.41.41,0,0,0,.09-.19c0-.11-.4-.35-1-.35a1.14,1.14,0,0,0-.89.28l-7,8.75-7-8.72A1.25,1.25,0,0,0,376,212.48Z"/><path class="cls-2" d="M398,223.39c-3.74,0-5.62-1.15-5.62-3.45v-1.06c0-2.32,1.88-3.45,5.62-3.45h8.5v0c0-.76-.95-1.23-3.18-1.23h-1.87c-.59,0-.73-.34-.73-1s.14-1,.73-1h1.95c3.74,0,5.62,1.13,5.62,3.46v4.31c0,2.3-1.88,3.45-5.62,3.45Zm8.5-3.45v-2.59h-8.42c-2.23,0-3.18.64-3.18,1.45v1.14c0,.79,1,1.45,3.18,1.45h5.24C405.55,221.39,406.5,220.73,406.5,219.94Z"/><path class="cls-2" d="M403.4,223.78H398c-4,0-6-1.29-6-3.84v-1.06c0-2.55,2-3.84,6-3.84h7.9a4.71,4.71,0,0,0-2.58-.48h-1.86c-1.13,0-1.13-1-1.13-1.38s0-1.4,1.13-1.4h1.94c4,0,6,1.3,6,3.85v4.31C409.41,222.49,407.39,223.78,403.4,223.78Zm-5.4-8c-3.52,0-5.24,1-5.24,3.07v1.06c0,2.06,1.72,3.07,5.24,3.07h5.4c3.52,0,5.24-1,5.24-3.07v-4.31c0-2.07-1.72-3.07-5.24-3.07h-1.94c-.25,0-.35,0-.35.62s.1.61.35.61h1.86c2.37,0,3.57.54,3.57,1.62v.38l-.39,0Zm5.32,6h-5.24c-3.22,0-3.57-1.28-3.57-1.83V218.8c0-.55.35-1.83,3.57-1.83h8.81v3C406.89,220.49,406.54,221.77,403.32,221.77Zm-5.24-4c-1.72,0-2.79.41-2.79,1.06v1.14c0,.64,1.09,1.06,2.79,1.06h5.24c1.7,0,2.79-.42,2.79-1.06v-2.2Z"/><path class="cls-2" d="M412.85,212.17v-2.32c0-.76.42-.94,1.25-.94s1.27.18,1.27.94v2.32h4.19c.6,0,.72.36.72,1s-.12,1-.72,1h-4.19v8.36c0,.75-.41.93-1.27.93s-1.25-.18-1.25-.93v-8.36h-1.13c-.6,0-.72-.34-.72-1s.12-1,.72-1Z"/><path class="cls-2" d="M414.1,223.86c-.49,0-1.64,0-1.64-1.32v-8h-.74c-1.1,0-1.1-1-1.1-1.38s0-1.4,1.1-1.4h.74v-1.93c0-1.32,1.15-1.32,1.64-1.32s1.66,0,1.66,1.32v1.93h3.8c1.11,0,1.11,1,1.11,1.4s0,1.38-1.11,1.38h-3.8v8C415.76,223.86,414.6,223.86,414.1,223.86Zm-2.38-11.3c-.23,0-.33,0-.33.62s.08.61.33.61h1.52v8.75c0,.37,0,.55.86.55s.89-.2.89-.55v-8.75h4.57c.25,0,.33,0,.33-.61s-.09-.62-.33-.62H415v-2.71c0-.36,0-.55-.89-.55s-.86.18-.86.55v2.71Z"/><path class="cls-2" d="M424,208.91c1.11,0,1.57.38,1.57,1.23s-.46,1.24-1.57,1.24-1.57-.38-1.57-1.24S422.91,208.91,424,208.91Zm1.27,13.63c0,.75-.42.93-1.27.93s-1.25-.18-1.25-.93v-9.38c0-.75.41-.93,1.25-.93s1.27.18,1.27.93Z"/><path class="cls-2" d="M424,223.86c-.49,0-1.64,0-1.64-1.32v-9.38c0-1.32,1.15-1.32,1.64-1.32s1.66,0,1.66,1.32v9.38C425.69,223.86,424.52,223.86,424,223.86Zm0-11.24c-.83,0-.87.16-.87.54v9.38c0,.38,0,.55.87.55s.88-.2.88-.55v-9.38C424.91,212.81,424.91,212.62,424,212.62Zm0-.86c-.49,0-2,0-2-1.62s1.47-1.61,2-1.61,2,0,2,1.61S424.51,211.76,424,211.76Zm0-2.46c-1.1,0-1.18.38-1.18.84s.08.85,1.18.85,1.18-.38,1.18-.85S425.12,209.3,424,209.3Z"/><path class="cls-2" d="M433.93,212.17h4.33c3.74,0,5.62,1.13,5.62,3.46v4.31c0,2.3-1.88,3.45-5.62,3.45h-4.33c-3.73,0-5.62-1.15-5.62-3.45v-4.31C428.31,213.3,430.2,212.17,433.93,212.17Zm7.43,3.46c0-.82-.95-1.45-3.18-1.45H434c-2.22,0-3.18.63-3.18,1.45v4.31c0,.79,1,1.45,3.18,1.45h4.17c2.23,0,3.18-.66,3.18-1.45Z"/><path class="cls-2" d="M438.26,223.78h-4.33c-4,0-6-1.29-6-3.84v-4.31c0-2.55,2-3.85,6-3.85h4.33c4,0,6,1.3,6,3.85v4.31C444.27,222.49,442.25,223.78,438.26,223.78Zm-4.33-11.22c-3.52,0-5.23,1-5.23,3.07v4.31c0,2.06,1.71,3.07,5.23,3.07h4.33c3.53,0,5.24-1,5.24-3.07v-4.31c0-2.07-1.71-3.07-5.24-3.07Zm4.25,9.21H434c-3.22,0-3.56-1.28-3.56-1.83v-4.31c0-.56.34-1.84,3.56-1.84h4.17c3.22,0,3.57,1.28,3.57,1.84v4.31C441.75,220.49,441.4,221.77,438.18,221.77ZM434,214.56c-1.72,0-2.79.41-2.79,1.07v4.31c0,.64,1.1,1.06,2.79,1.06h4.17c1.7,0,2.8-.42,2.8-1.06v-4.31c0-.66-1.07-1.07-2.8-1.07Z"/><path class="cls-2" d="M446.82,222.54v-6.91c0-2.33,1.89-3.46,5.62-3.46h4.33c3.73,0,5.62,1.13,5.62,3.46v6.91c0,.75-.42.93-1.27.93s-1.25-.18-1.25-.93v-6.91c0-.82-1-1.45-3.18-1.45h-4.17c-2.23,0-3.18.63-3.18,1.45v6.91c0,.75-.42.93-1.27.93S446.82,223.29,446.82,222.54Z"/><path class="cls-2" d="M461.12,223.86c-.49,0-1.64,0-1.64-1.32v-6.91c0-.66-1.07-1.07-2.79-1.07h-4.17c-1.72,0-2.79.41-2.79,1.07v6.91c0,1.32-1.17,1.32-1.66,1.32s-1.64,0-1.64-1.32v-6.91c0-2.55,2-3.85,6-3.85h4.33c4,0,6,1.3,6,3.85v6.91C462.78,223.86,461.62,223.86,461.12,223.86Zm-8.6-10.07h4.17c3.22,0,3.57,1.28,3.57,1.84v6.91c0,.37,0,.55.86.55s.88-.2.88-.55v-6.91c0-2.07-1.71-3.07-5.23-3.07h-4.33c-3.52,0-5.24,1-5.24,3.07v6.91c0,.37,0,.55.87.55s.88-.2.88-.55v-6.91C449,215.07,449.3,213.79,452.52,213.79Z"/><path class="cls-2" d="M265.13,237.49q-4.29,0-4.29-2.7v-.57c0-1.81,1.43-2.69,4.29-2.69h1.45c.47,0,.57.26.57.78s-.1.78-.57.78h-1.49c-1.7,0-2.34.5-2.34,1.13v.57c0,.62.64,1.13,2.34,1.13h3.42c2.86,0,4.3.9,4.3,2.7v.73c0,1.81-1.44,2.69-4.3,2.69H261.4c-.46,0-.56-.26-.56-.78s.1-.78.56-.78h7.16c1.69,0,2.33-.5,2.33-1.13v-.73c0-.62-.64-1.13-2.33-1.13Z"/><path class="cls-2" d="M268.51,242.29H261.4c-.8,0-.8-.7-.8-1s0-1,.8-1h7.16c.78,0,2.09-.12,2.09-.89v-.73c0-.57-.76-.89-2.09-.89h-3.43c-3,0-4.53-1-4.53-2.94v-.57c0-1.95,1.52-2.94,4.53-2.94h1.45c.81,0,.81.7.81,1s0,1-.81,1h-1.49c-.78,0-2.1.11-2.1.88v.57c0,.57.77.89,2.1.89h3.42c3,0,4.54,1,4.54,2.94v.73C273.05,241.3,271.52,242.29,268.51,242.29Zm-7.11-1.57c-.21,0-.32,0-.32.54s.11.54.32.54h7.11c2.73,0,4.05-.8,4.05-2.45v-.73c0-1.65-1.32-2.46-4.05-2.46h-3.42c-2.24,0-2.58-.86-2.58-1.37v-.57c0-.51.34-1.37,2.58-1.37h1.49c.21,0,.33,0,.33-.54s-.12-.54-.33-.54h-1.45c-2.73,0-4.05.8-4.05,2.45v.57c0,1.65,1.32,2.46,4.05,2.46h3.43c2.24,0,2.57.86,2.57,1.37v.73c0,.51-.33,1.37-2.57,1.37Z"/><path class="cls-2" d="M278.84,233.85H282c2.73,0,4.1.82,4.1,2.52v3.15q0,2.52-4.1,2.52h-3.16c-2.73,0-4.11-.84-4.11-2.52v-3.15C274.73,234.67,276.11,233.85,278.84,233.85Zm5.42,2.52c0-.59-.69-1.06-2.32-1.06h-3.05c-1.62,0-2.32.47-2.32,1.06v3.15c0,.58.7,1.06,2.32,1.06h3.05c1.63,0,2.32-.48,2.32-1.06Z"/><path class="cls-2" d="M282,242.29h-3.16c-2.89,0-4.35-.94-4.35-2.77v-3.15c0-1.83,1.46-2.76,4.35-2.76H282c2.88,0,4.35.93,4.35,2.76v3.15C286.35,241.35,284.88,242.29,282,242.29Zm-3.16-8.2c-2.6,0-3.87.75-3.87,2.28v3.15c0,1.54,1.27,2.28,3.87,2.28H282c2.6,0,3.86-.74,3.86-2.28v-3.15c0-1.53-1.26-2.28-3.86-2.28Zm3.1,6.73h-3.05c-2.31,0-2.56-.91-2.56-1.3v-3.15c0-.39.25-1.3,2.56-1.3h3.05c2.31,0,2.56.91,2.56,1.3v3.15C284.5,239.91,284.25,240.82,281.94,240.82Zm-3.05-5.27c-1.28,0-2.08.32-2.08.82v3.15c0,.5.82.82,2.08.82h3.05c1.26,0,2.08-.32,2.08-.82v-3.15c0-.5-.8-.82-2.08-.82Z"/><path class="cls-2" d="M292.28,242c-2.73,0-4.11-.84-4.11-2.52v-3.15c0-1.7,1.38-2.52,4.11-2.52h7.25c.44,0,.54.24.54.74s-.1.72-.54.72h-7.19c-1.63,0-2.32.47-2.32,1.06v3.15c0,.58.69,1.06,2.32,1.06h7.24c.43,0,.52.25.52.72s-.09.74-.52.74Z"/><path class="cls-2" d="M299.58,242.29h-7.3c-2.89,0-4.35-.94-4.35-2.77v-3.15c0-1.83,1.46-2.76,4.35-2.76h7.25c.78,0,.78.68.78,1s0,1-.78,1h-7.19c-1.28,0-2.08.32-2.08.82v3.15c0,.5.81.82,2.08.82h7.24c.76,0,.76.65.76,1S300.34,242.29,299.58,242.29Zm-7.3-8.2c-2.6,0-3.86.75-3.86,2.28v3.15c0,1.54,1.26,2.28,3.86,2.28h7.3c.18,0,.28,0,.28-.5s-.09-.48-.28-.48h-7.24c-2.32,0-2.57-.91-2.57-1.3v-3.15c0-.39.25-1.3,2.57-1.3h7.19c.19,0,.3,0,.3-.48s-.11-.5-.3-.5Z"/><path class="cls-2" d="M303.14,231.47c.81,0,1.15.27,1.15.9s-.34.9-1.15.9-1.15-.28-1.15-.9S302.33,231.47,303.14,231.47Zm.93,9.95c0,.55-.31.68-.93.68s-.91-.13-.91-.68v-6.85c0-.55.3-.68.91-.68s.93.13.93.68Z"/><path class="cls-2" d="M303.14,242.34c-.57,0-1.15-.11-1.15-.92v-6.85c0-.81.58-.92,1.15-.92.38,0,1.17,0,1.17.92v6.85C304.31,242.34,303.52,242.34,303.14,242.34Zm0-8.21c-.61,0-.67.13-.67.44v6.85c0,.31.06.44.67.44s.69-.13.69-.44v-6.85C303.83,234.26,303.77,234.13,303.14,234.13Zm0-.62c-.34,0-1.39,0-1.39-1.14s1.05-1.14,1.39-1.14,1.39,0,1.39,1.14S303.48,233.51,303.14,233.51Zm0-1.8c-.83,0-.9.31-.9.66s.07.66.9.66.91-.32.91-.66S304,231.71,303.14,231.71Z"/><path class="cls-2" d="M308.11,238.78v.74c0,.58.7,1.06,2.32,1.06h1.67c.44,0,.52.25.52.72s-.08.74-.52.74h-1.72c-2.73,0-4.11-.84-4.11-2.52v-3.15c0-1.7,1.38-2.52,4.11-2.52h3.35c2.9,0,4.1.82,4.1,2.52V238c0,.57-.13.74-.87.74Zm0-1.44H316v-1c0-.67-.7-1.06-2.32-1.06h-3.24c-1.62,0-2.32.47-2.32,1.06Z"/><path class="cls-2" d="M312.1,242.29h-1.72c-2.89,0-4.35-.94-4.35-2.77v-3.15c0-1.83,1.46-2.76,4.35-2.76h3.35c1.86,0,4.34.28,4.34,2.76V238c0,.73-.28,1-1.11,1h-8.61v.5c0,.5.82.82,2.08.82h1.67c.77,0,.77.65.77,1S312.87,242.29,312.1,242.29Zm-1.72-8.2c-2.6,0-3.87.75-3.87,2.28v3.15c0,1.54,1.27,2.28,3.87,2.28h1.72c.19,0,.28,0,.28-.5s-.09-.48-.28-.48h-1.67c-2.31,0-2.56-.91-2.56-1.3v-1H317c.63,0,.63-.09.63-.5v-1.67c0-1.13-.46-2.28-3.86-2.28Zm5.85,3.5h-8.36v-1.22c0-.39.25-1.3,2.56-1.3h3.24c1.7,0,2.56.44,2.56,1.3Zm-7.88-.49h7.4v-.73c0-.67-1.13-.82-2.08-.82h-3.24c-1.28,0-2.08.32-2.08.82Z"/><path class="cls-2" d="M321.48,233.85v-1.7c0-.55.3-.68.91-.68s.93.13.93.68v1.7h3.06c.44,0,.52.26.52.74s-.08.72-.52.72h-3.06v6.11c0,.55-.3.68-.93.68s-.91-.13-.91-.68v-6.11h-.83c-.43,0-.52-.24-.52-.72s.09-.74.52-.74Z"/><path class="cls-2" d="M322.39,242.34c-.57,0-1.15-.11-1.15-.92v-5.87h-.59c-.76,0-.76-.65-.76-1s0-1,.76-1h.59v-1.46c0-.81.58-.92,1.15-.92.38,0,1.17,0,1.17.92v1.46h2.82c.77,0,.77.68.77,1s0,1-.77,1h-2.82v5.87C323.56,242.34,322.77,242.34,322.39,242.34Zm-1.74-8.25c-.19,0-.28,0-.28.5s.09.48.28.48h1.07v6.35c0,.31.06.44.67.44s.69-.13.69-.44v-6.35h3.3c.19,0,.28,0,.28-.48s-.09-.5-.28-.5h-3.3v-1.94c0-.31-.06-.44-.69-.44s-.67.13-.67.44v1.94Z"/><path class="cls-2" d="M337.32,240.38v-5.91c0-.55.3-.68.91-.68s.93.13.93.68v7.44c0,1.67-1.33,2.51-3.75,2.51h-2c-.43,0-.52-.26-.52-.74s.09-.72.52-.72h2c1.43,0,1.91-.38,1.91-1.05v-.07h-5.51c-2.73,0-4.11-.83-4.11-2.52v-4.85c0-.55.31-.68.92-.68s.92.13.92.68v4.86c0,.6.7,1,2.33,1Z"/><path class="cls-2" d="M335.41,244.66h-2c-.76,0-.76-.68-.76-1s0-1,.76-1h2c1.36,0,1.61-.36,1.66-.64h-5.26c-2.89,0-4.35-.93-4.35-2.76v-4.85c0-.81.58-.92,1.16-.92.38,0,1.17,0,1.17.92v4.86c0,.5.77.8,2.08.8h5.21v-5.66c0-.81.58-.92,1.15-.92.38,0,1.17,0,1.17.92v7.44C339.4,243.17,338.71,244.66,335.41,244.66Zm-2-1.46c-.19,0-.28,0-.28.48s.1.5.28.5h2c2.33,0,3.51-.76,3.51-2.27v-7.44c0-.31-.06-.44-.69-.44s-.67.13-.67.44v6.15h-5.69c-2.23,0-2.57-.81-2.57-1.29v-4.86c0-.31-.06-.44-.68-.44s-.68.13-.68.44v4.85c0,1.53,1.27,2.28,3.87,2.28h5.75v.31c0,1.16-1.23,1.29-2.15,1.29Z"/><path class="cls-3" d="M371.91,158.52l5-5,.7.9a29.12,29.12,0,0,1,5.92,14.31l.14,1.11h-7.09l-.12-.84a22,22,0,0,0-4.06-9.76Z"/><path class="cls-4" d="M376.58,174.92h7.09l-.14,1.11a29.16,29.16,0,0,1-5.92,14.31l-.7.87-5-5,.49-.67a21.86,21.86,0,0,0,4.06-9.76Z"/><path class="cls-5" d="M340.62,154.92l-5-5,.9-.67a28.61,28.61,0,0,1,14.29-5.94l1.11-.14v7.11l-.83.12a22.08,22.08,0,0,0-9.74,4Z"/><path class="cls-6" d="M357.85,150.37l-.85-.12v-7.11l1.11.14a28.75,28.75,0,0,1,14.31,5.94l.9.67-5.05,5-.68-.51A22.08,22.08,0,0,0,357.85,150.37Z"/></g></g></svg>