<svg xmlns="http://www.w3.org/2000/svg" viewBox="0 0 16 16">
<defs>
<style>.cls-2{fill:#f9a900;}.cls-3{fill:#e91d26;}.cls-4{fill:#00ab4d;}.cls-5{fill:#fbe600;}</style>
</defs>
<title>Asset 1</title>
<g id="Layer_2" data-name="Layer 2">
  <g id="Layer_1-2" data-name="Layer 1">
    <path class="cls-2" d="M10.07,6.54l.84-.85.12.16a4.92,4.92,0,0,1,1,2.41l0,.18h-1.2l0-.14a3.66,3.66,0,0,0-.68-1.64Z"/>
    <path class="cls-3" d="M10.85,9.3h1.2l0,.19a4.92,4.92,0,0,1-1,2.41l-.12.15-.84-.85.08-.11a3.65,3.65,0,0,0,.68-1.65Z"/>
    <path class="cls-4" d="M4.8,5.94,4,5.09,4.1,5A5,5,0,0,1,6.51,4L6.7,4v1.2l-.14,0a3.7,3.7,0,0,0-1.65.68Z"/>
    <path class="cls-5" d="M7.7,5.17l-.14,0V4l.18,0a5,5,0,0,1,2.41,1l.16.12-.86.85-.11-.09A3.66,3.66,0,0,0,7.7,5.17Z"/>
  </g>
</g>
</svg>